<?xml version="1.0" encoding="UTF-8" standalone="no"?>
<svg
   viewBox="1354.276 -8200.414 355.058 72.936"
   version="1.1"
   id="svg9"
   sodipodi:docname="min_kult2.svg"
   inkscape:version="1.2 (dc2aeda, 2022-05-15)"
   xmlns:inkscape="http://www.inkscape.org/namespaces/inkscape"
   xmlns:sodipodi="http://sodipodi.sourceforge.net/DTD/sodipodi-0.dtd"
   xmlns="http://www.w3.org/2000/svg"
   xmlns:svg="http://www.w3.org/2000/svg">
  <sodipodi:namedview
     id="namedview11"
     pagecolor="#ffffff"
     bordercolor="#000000"
     borderopacity="0.25"
     inkscape:showpageshadow="2"
     inkscape:pageopacity="0.0"
     inkscape:pagecheckerboard="0"
     inkscape:deskcolor="#d1d1d1"
     showgrid="false"
     inkscape:zoom="2.631153"
     inkscape:cx="189.46066"
     inkscape:cy="-1.7102768"
     inkscape:window-width="1681"
     inkscape:window-height="871"
     inkscape:window-x="1685"
     inkscape:window-y="129"
     inkscape:window-maximized="0"
     inkscape:current-layer="svg9" />
  <defs
     id="defs4">
    <rect
       x="77.262709"
       y="3.3995592"
       width="217.88084"
       height="15.143491"
       id="rect321" />
    <style
       id="style2">
      .cls-1 {
        fill: white;
      }

      .cls-2 {
        fill: white;
      }
    </style>
    <pattern
       patternUnits="userSpaceOnUse"
       width="275.53097"
       height="50.959983"
       patternTransform="translate(74.254832,12.536894)"
       id="pattern612">
      <text
         xml:space="preserve"
         style="font-size:14.6667px;letter-spacing:1px;fill:#ffffff"
         x="-0.93866885"
         y="11.102693"
         id="text327"><tspan
           sodipodi:role="line"
           id="tspan325"
           x="-0.93866885"
           y="11.102693"
           style="font-style:normal;font-variant:normal;font-weight:normal;font-stretch:normal;font-size:14.6667px;font-family:Lazursky;-inkscape-font-specification:Lazursky;fill:#ffffff">МИНИСТЕРСТВО КУЛЬТУРЫ РФ</tspan><tspan
           sodipodi:role="line"
           x="-0.93866885"
           y="29.880035"
           id="tspan329"
           style="font-style:normal;font-variant:normal;font-weight:normal;font-stretch:normal;font-size:14.6667px;font-family:Lazursky;-inkscape-font-specification:Lazursky;fill:#ffffff">ИНФОРМАЦИОННЫЙ РЕСУРС</tspan><tspan
           sodipodi:role="line"
           x="-0.93866885"
           y="48.657379"
           id="tspan331"
           style="font-style:normal;font-variant:normal;font-weight:normal;font-stretch:normal;font-size:14.6667px;font-family:Lazursky;-inkscape-font-specification:Lazursky;fill:#ffffff">ПО ОБЪЕКТАМ НЕДВИЖИМОСТИ</tspan></text>
    </pattern>
  </defs>
  <path
     id="Path_1314"
     data-name="Path 1314"
     class="cls-2"
     d="m 1372.357,-8161.188 0.613,-1.287 -0.368,-0.184 -0.858,1.1 0.123,0.49 z m 3.065,0.368 v -1.287 l -0.429,-0.061 -0.306,1.226 0.306,0.368 z m 24.762,0.245 0.306,-0.368 -0.306,-1.226 -0.429,0.061 v 1.287 z m 3.126,-0.552 0.123,-0.49 -0.858,-1.1 -0.368,0.184 0.613,1.287 z m 1.9,-2.023 -0.123,-0.49 -1.287,-0.552 -0.184,0.429 1.165,0.8 z m -35.366,-5.944 0.123,0.49 1.348,0.49 0.184,-0.368 -1.223,-0.732 z m 1.226,2.758 -1.471,-0.184 -0.368,0.306 0.306,0.429 1.41,-0.123 z m -0.919,2.758 -0.123,0.49 0.49,0.184 1.165,-0.8 -0.184,-0.429 z m 35.18,-5.026 0.123,-0.49 -0.49,-0.123 -1.226,0.735 0.184,0.368 z m 15.568,0.613 a 4.854,4.854 0 0 0 -1.348,-0.49 8.1,8.1 0 0 0 -1.655,-0.123 6.018,6.018 0 0 0 1.1,-0.49 4.344,4.344 0 0 0 1.961,-3.126 c 0,0 -1.042,-0.123 -1.655,-0.123 a 11.114,11.114 0 0 0 -1.961,0.123 5.242,5.242 0 0 0 1.594,-1.1 4.391,4.391 0 0 0 1.165,-3.248 3.268,3.268 0 0 0 -1.287,-0.123 2.229,2.229 0 0 0 -1.165,0.306 5.087,5.087 0 0 0 1.471,-3.065 3.908,3.908 0 0 0 -0.368,-2.39 3.89,3.89 0 0 0 -1.348,0.735 c -0.858,0.674 -2.084,1.839 -2.084,1.839 a 6.207,6.207 0 0 0 0.674,-1.1 c 1.532,-3.126 1.348,-5.577 0.981,-6.313 -0.429,-0.8 -1.287,-0.858 -1.655,-0.245 -0.306,0.429 -1.165,2.329 -1.9,3.677 a 30.888,30.888 0 0 1 -3.187,4.9 c -0.306,-0.735 -0.674,-0.184 -0.674,-0.184 0,0 -0.49,0.858 -1.042,1.777 a 9.136,9.136 0 0 1 -1.594,1.9 3.121,3.121 0 0 0 -1.042,-0.858 l -0.184,0.184 c 0,0 -3.677,3.8 -4.781,5.332 -1.1,1.471 -0.306,2.206 0.552,3.371 0.8,1.226 0.49,2.636 -1.226,3.31 -1.471,0.552 -2.513,0.061 -2.881,-0.674 a 3.3,3.3 0 0 0 2.145,-3 3.77,3.77 0 0 0 -0.061,-0.8 3.13,3.13 0 0 0 -3.126,-2.574 3.514,3.514 0 0 0 -1.532,0.368 1.94,1.94 0 0 0 -0.735,0.49 l -0.123,0.123 c -0.674,-1.226 -0.613,-2.206 0.184,-3.861 a 6.528,6.528 0 0 1 2.452,-2.513 l 0.368,0.306 c 0,0 0,-0.123 0.735,-0.49 a 1.721,1.721 0 0 1 2.145,0.429 2.064,2.064 0 0 1 0.49,1.41 2.607,2.607 0 0 0 0.674,-0.981 1.284,1.284 0 0 0 -0.061,-0.981 c 0,0 0.613,0.245 1.287,0.49 a 2.561,2.561 0 0 0 2.7,-0.184 2.367,2.367 0 0 0 0.8,-2.023 2.6,2.6 0 0 1 -1.655,1.042 4.111,4.111 0 0 1 -2.39,-0.613 13.789,13.789 0 0 0 -1.532,-0.429 2.3,2.3 0 0 1 2.145,-0.245 c 0.981,0.306 1.1,0.674 1.1,0.674 a 2.633,2.633 0 0 0 0.858,-1.1 1.7,1.7 0 0 0 -0.49,-2.084 4.714,4.714 0 0 0 -1.777,-0.858 0.279,0.279 0 0 0 -0.184,-0.429 6.269,6.269 0 0 0 -0.674,-0.184 1.093,1.093 0 0 0 -0.674,-1.348 c -1.532,-0.674 -3.984,0.613 -6.681,0.981 a 3.834,3.834 0 0 1 -2.574,-0.306 2.055,2.055 0 0 0 0.49,0.8 5.111,5.111 0 0 0 1.165,0.919 c 0,0 -0.552,0.061 -0.981,0.061 -0.429,-0.061 -1.226,-0.245 -1.226,-0.245 a 2.35,2.35 0 0 0 0.735,0.735 7.317,7.317 0 0 0 0.919,0.429 12.756,12.756 0 0 1 -1.839,0.735 11.492,11.492 0 0 1 -2.206,0.306 3.3,3.3 0 0 0 1.1,0.674 c 0.674,0.245 0.919,0.306 0.919,0.306 a 15.519,15.519 0 0 0 -1.165,1.9 c -0.429,0.8 -1.1,2.39 -1.471,3.248 -0.368,-0.858 -1.042,-2.452 -1.471,-3.248 a 15.519,15.519 0 0 0 -1.165,-1.9 2.372,2.372 0 0 0 0.919,-0.306 3.3,3.3 0 0 0 1.1,-0.674 8.155,8.155 0 0 1 -2.206,-0.306 14.154,14.154 0 0 1 -1.777,-0.735 c 0,0 0.49,-0.245 0.981,-0.552 a 3.388,3.388 0 0 0 0.735,-0.735 c 0,0 -0.8,0.184 -1.226,0.245 a 3.3,3.3 0 0 1 -0.981,-0.061 5.111,5.111 0 0 0 1.173,-0.931 2.055,2.055 0 0 0 0.49,-0.8 3.7,3.7 0 0 1 -2.574,0.306 c -2.7,-0.368 -5.087,-1.655 -6.681,-0.981 a 1.171,1.171 0 0 0 -0.674,1.348 6.728,6.728 0 0 1 -0.674,0.184 c -0.429,0.123 -0.184,0.429 -0.184,0.429 a 5.18,5.18 0 0 0 -1.777,0.858 1.784,1.784 0 0 0 -0.49,2.084 2.633,2.633 0 0 0 0.858,1.1 c 0,0 0.123,-0.368 1.1,-0.674 a 2.3,2.3 0 0 1 2.145,0.245 6.589,6.589 0 0 0 -1.532,0.429 4.485,4.485 0 0 1 -2.39,0.613 2.892,2.892 0 0 1 -1.655,-1.042 2.367,2.367 0 0 0 0.8,2.023 2.437,2.437 0 0 0 2.7,0.184 c 0.674,-0.245 1.287,-0.49 1.287,-0.49 a 1.742,1.742 0 0 0 -0.061,0.981 2.607,2.607 0 0 0 0.674,0.981 2.064,2.064 0 0 1 0.49,-1.41 1.706,1.706 0 0 1 2.145,-0.429 c 0.735,0.368 0.735,0.49 0.735,0.49 l 0.368,-0.306 a 6.528,6.528 0 0 1 2.452,2.513 c 0.858,1.655 0.919,2.574 0.245,3.8 l -0.061,-0.061 c -0.245,-0.184 -0.552,-0.306 -0.858,-0.49 a 3.514,3.514 0 0 0 -1.532,-0.368 3.142,3.142 0 0 0 -3.13,2.583 3.5,3.5 0 0 0 -0.061,0.8 3.086,3.086 0 0 0 2.206,3 c -0.429,0.735 -1.41,1.226 -2.881,0.674 -1.716,-0.674 -2.023,-2.084 -1.226,-3.31 0.797,-1.226 1.655,-1.9 0.552,-3.371 -1.103,-1.471 -4.781,-5.332 -4.781,-5.332 l -0.184,-0.184 a 3.976,3.976 0 0 0 -1.042,0.858 9.382,9.382 0 0 1 -1.594,-1.9 c -0.552,-0.919 -1.042,-1.777 -1.042,-1.777 0,0 -0.306,-0.49 -0.674,0.184 a 30.888,30.888 0 0 1 -3.187,-4.9 c -0.735,-1.348 -1.594,-3.248 -1.9,-3.677 -0.368,-0.613 -1.226,-0.552 -1.655,0.245 -0.49,0.858 -0.674,3.31 0.858,6.436 a 6.207,6.207 0 0 0 0.674,1.1 c 0,0 -1.226,-1.165 -2.084,-1.839 a 3.89,3.89 0 0 0 -1.348,-0.735 3.129,3.129 0 0 0 -0.368,2.39 5.238,5.238 0 0 0 1.471,3.065 2.431,2.431 0 0 0 -1.165,-0.306 3.268,3.268 0 0 0 -1.287,0.123 4,4 0 0 0 1.042,3.248 6.127,6.127 0 0 0 1.594,1.1 11.114,11.114 0 0 0 -1.961,-0.123 c -0.552,0 -1.594,0.123 -1.594,0.123 a 4.446,4.446 0 0 0 1.962,3.128 4.6,4.6 0 0 0 1.1,0.49 8.718,8.718 0 0 0 -1.655,0.123 8.574,8.574 0 0 0 -1.348,0.49 4.6,4.6 0 0 0 2.513,2.513 2,2 0 0 0 0.858,0.245 7.16,7.16 0 0 0 -1.594,0.613 4.472,4.472 0 0 0 -1.1,0.8 4.222,4.222 0 0 0 2.575,1.958 1.073,1.073 0 0 1 0.306,0.061 7.072,7.072 0 0 0 -1.226,0.981 6.466,6.466 0 0 0 -0.858,1.226 4.4,4.4 0 0 0 3.432,1.226 6.42,6.42 0 0 0 -0.49,0.674 5.11,5.11 0 0 0 -0.552,1.655 4.448,4.448 0 0 0 3.248,0.306 1.835,1.835 0 0 0 -0.245,0.613 14.809,14.809 0 0 0 -0.184,1.716 4.351,4.351 0 0 0 3.494,-0.613 3.319,3.319 0 0 0 -0.245,0.919 11.463,11.463 0 0 0 0.061,1.716 4.4,4.4 0 0 0 3.432,-1.226 l 0.123,-0.123 a 1.319,1.319 0 0 0 0,0.49 8.792,8.792 0 0 0 0.306,1.716 4.546,4.546 0 0 0 3.248,-1.716 c 0.123,-0.184 0.184,-0.306 0.306,-0.49 a 3.288,3.288 0 0 0 0.245,1.165 6.228,6.228 0 0 0 0.613,1.1 3.734,3.734 0 0 0 2.268,-2.206 8.711,8.711 0 0 0 0.368,-2.574 l 0.184,0.184 a 2.506,2.506 0 0 0 1.1,-0.674 16.574,16.574 0 0 0 -0.674,4.352 7.815,7.815 0 0 0 0.061,1.165 7.686,7.686 0 0 0 0.306,1.9 c 0,0 -0.306,0.552 -0.552,0.919 a 1.582,1.582 0 0 0 -0.485,1.286 0.7,0.7 0 0 0 0.613,0.613 1.538,1.538 0 0 0 0.184,0.919 1.076,1.076 0 0 0 0.674,0.429 2.757,2.757 0 0 0 0.49,0.123 2.415,2.415 0 0 0 0.306,0.858 7.864,7.864 0 0 0 0.981,0.429 c 0.184,0.061 0.49,0.306 0.674,0.368 a 1.484,1.484 0 0 0 1.226,-0.123 0.845,0.845 0 0 0 0.306,-0.735 c 0.123,0.061 0.184,0.061 0.306,0.123 a 1.885,1.885 0 0 1 0.858,0.49 5.12,5.12 0 0 1 0.429,1.9 3.735,3.735 0 0 0 0.184,1.042 l 0.061,0.061 c 0,-0.123 0,-0.123 -0.061,-0.061 a 7.158,7.158 0 0 0 -1.655,0.858 c -0.613,0.429 -1.287,1.594 -2.206,1.777 a 1.128,1.128 0 0 1 -1.47,-0.671 6.679,6.679 0 0 1 -0.061,-0.735 c 0,0 -1.1,0.613 -1.165,1.41 a 1.425,1.425 0 0 0 0.8,1.41 c 0,0 -1.41,1.348 -0.981,2.574 0.368,1.042 0.674,1.471 0.735,1.839 a 0.848,0.848 0 0 1 -0.128,0.612 c 0,0 0.735,0.061 0.919,-0.919 a 2.116,2.116 0 0 1 0.429,-1.1 1.813,1.813 0 0 1 0.184,-0.245 5.429,5.429 0 0 0 0.123,1.532 2.3,2.3 0 0 0 2.084,1.41 3.752,3.752 0 0 0 1.9,-0.49 3.449,3.449 0 0 0 1.961,1.283 5.29,5.29 0 0 0 2.268,-0.184 7.159,7.159 0 0 0 0.613,0.919 6.142,6.142 0 0 0 0.674,0.735 l 0.368,0.184 c 0,0 0.429,-0.429 0.735,-0.8 a 6.712,6.712 0 0 0 0.674,-1.226 4.878,4.878 0 0 0 2.39,0.245 4.339,4.339 0 0 0 1.9,-1.042 2.374,2.374 0 0 0 1.778,0.679 2.564,2.564 0 0 0 2.084,-1.716 5.429,5.429 0 0 0 0.123,-1.532 1.814,1.814 0 0 0 0.245,0.184 c 0.184,0.123 0.306,0.245 0.429,0.919 0.184,0.981 0.735,1.042 0.735,1.042 a 2.307,2.307 0 0 1 0.123,-0.981 10.576,10.576 0 0 0 0.735,-1.716 1.979,1.979 0 0 0 -0.981,-2.329 1.484,1.484 0 0 0 0.735,-1.348 1.835,1.835 0 0 0 -1.287,-1.532 c 0,0 0.123,0.123 0,0.613 -0.061,0.49 -0.552,0.981 -1.471,0.735 -0.49,-0.123 -1.41,-1.226 -2.023,-1.655 a 20.208,20.208 0 0 0 -1.777,-0.981 0.19,0.19 0 0 1 -0.123,-0.061 v -0.061 a 2.212,2.212 0 0 0 0.184,-1.042 7.071,7.071 0 0 1 0.368,-1.716 1.843,1.843 0 0 1 0.924,-0.614 1.573,1.573 0 0 1 0.306,-0.123 1.062,1.062 0 0 0 0.306,0.735 1.277,1.277 0 0 0 1.226,0.123 c 0.184,-0.123 0.552,-0.306 0.674,-0.368 a 2.894,2.894 0 0 0 0.981,-0.429 c 0.245,-0.184 0.306,-0.858 0.306,-0.858 a 2.758,2.758 0 0 0 0.49,-0.123 2.316,2.316 0 0 0 0.674,-0.429 1.538,1.538 0 0 0 0.184,-0.919 0.7,0.7 0 0 0 0.614,-0.609 1.582,1.582 0 0 0 -0.49,-1.287 4.655,4.655 0 0 1 -0.552,-0.919 8.21,8.21 0 0 0 0.306,-1.9 7.038,7.038 0 0 0 0.061,-1.165 14.376,14.376 0 0 0 -0.674,-4.352 2.506,2.506 0 0 0 1.1,0.674 l 0.184,-0.184 a 8.711,8.711 0 0 0 0.368,2.574 3.959,3.959 0 0 0 2.268,2.206 10.31,10.31 0 0 0 0.613,-1.1 5.672,5.672 0 0 0 0.245,-1.165 c 0.123,0.184 0.184,0.306 0.306,0.49 a 4.546,4.546 0 0 0 3.248,1.716 8.792,8.792 0 0 0 0.306,-1.716 v -0.49 l 0.123,0.123 a 4.4,4.4 0 0 0 3.432,1.226 11.462,11.462 0 0 0 0.061,-1.716 2.415,2.415 0 0 0 -0.245,-0.919 4.356,4.356 0 0 0 3.494,0.613 7.543,7.543 0 0 0 -0.184,-1.716 6.361,6.361 0 0 0 -0.245,-0.613 4.448,4.448 0 0 0 3.248,-0.306 5.11,5.11 0 0 0 -0.552,-1.655 3.2,3.2 0 0 0 -0.49,-0.674 4.4,4.4 0 0 0 3.432,-1.226 6.466,6.466 0 0 0 -0.858,-1.226 10.526,10.526 0 0 0 -1.226,-0.981 2.655,2.655 0 0 0 0.306,-0.061 4.222,4.222 0 0 0 2.574,-1.961 6.387,6.387 0 0 0 -1.1,-0.8 14.428,14.428 0 0 0 -1.532,-0.613 3.513,3.513 0 0 0 0.858,-0.245 3.676,3.676 0 0 0 2.452,-2.206 m -2.268,-3.739 a 8.641,8.641 0 0 1 1.348,0.123 6.285,6.285 0 0 1 -3.616,2.145 19.8,19.8 0 0 1 -5.026,0.8 5.939,5.939 0 0 0 1.777,-1.532 c 0,0 0,-0.123 -0.552,-0.306 0.49,-0.123 1.41,-0.368 2.084,-0.613 a 11.049,11.049 0 0 0 1.287,-0.49 c 0.245,0 1.839,-0.123 2.7,-0.123 m -16.181,12.2 a 5.246,5.246 0 0 0 0.674,1.471 c -0.061,0.184 -0.123,0.49 -0.245,0.8 a 2.121,2.121 0 0 1 -0.49,0.613 2.043,2.043 0 0 1 -1.287,-1.042 3.416,3.416 0 0 1 -0.306,-1.655 c 0.184,-0.123 0.306,-0.306 0.429,-0.368 a 2.52,2.52 0 0 0 0.429,-0.735 2.207,2.207 0 0 0 0.735,0.306 1.143,1.143 0 0 0 0.061,0.613 v 0 m 0.49,-0.429 a 2.767,2.767 0 0 0 0.8,0.184 2.08,2.08 0 0 0 0.368,-0.368 5.335,5.335 0 0 0 1.532,1.287 4.956,4.956 0 0 1 0,0.981 c -0.061,0.49 -0.123,0.8 -0.123,0.8 a 2.928,2.928 0 0 1 -1.471,-0.8 6.2,6.2 0 0 1 -1.1,-2.084 m 1.594,-0.613 c 0.061,-0.061 0.061,-0.123 0.123,-0.184 a 2.109,2.109 0 0 0 0.245,-1.1 11.563,11.563 0 0 0 2.636,1.165 5.15,5.15 0 0 1 0.245,0.858 1.956,1.956 0 0 1 0.061,0.8 6.622,6.622 0 0 1 -1.777,-0.49 3.789,3.789 0 0 1 -1.532,-1.042 m 2.268,-1.1 c -0.245,-0.061 -0.674,-0.306 -0.858,-0.368 a 3.167,3.167 0 0 0 0.981,-0.613 0.479,0.479 0 0 0 -0.123,-0.306 5.532,5.532 0 0 0 1.594,0.123 h 0.173 a 8.846,8.846 0 0 1 1.042,0.735 2.322,2.322 0 0 1 0.613,0.981 10.052,10.052 0 0 1 -3.432,-0.552 m 1.594,-2.023 a 11.726,11.726 0 0 1 -1.961,-0.184 3.634,3.634 0 0 0 -0.49,-0.49 2.037,2.037 0 0 0 0.674,-0.49 9.6,9.6 0 0 0 3.494,-0.368 c 0.061,0 0.123,-0.061 0.184,-0.061 a 5.972,5.972 0 0 1 0.674,0.306 2.317,2.317 0 0 1 0.981,0.735 9.258,9.258 0 0 1 -3.555,0.552 m 0.368,-2.023 a 4.863,4.863 0 0 1 -1.655,0 2.923,2.923 0 0 0 0.245,-0.49 c -0.061,-0.245 -0.368,-0.49 -0.858,-0.858 -0.061,0 -0.061,-0.061 -0.123,-0.061 a 21.95,21.95 0 0 0 2.942,-0.49 2.688,2.688 0 0 1 1.163,0.286 3.383,3.383 0 0 1 1.287,0.735 14.674,14.674 0 0 1 -3,0.858 m 0.429,-2.881 a 12.172,12.172 0 0 1 -2.881,0.49 4.207,4.207 0 0 0 0.552,-0.981 15.634,15.634 0 0 0 3.065,-1.532 8,8 0 0 1 1.042,0.061 2.849,2.849 0 0 1 1.41,0.429 7.007,7.007 0 0 1 -3.187,1.532 m 9.194,-7.477 a 3.144,3.144 0 0 1 1.165,0 9.647,9.647 0 0 1 -3.8,3.248 22.345,22.345 0 0 1 -4.046,1.838 7.121,7.121 0 0 0 -1.23,-0.12 8.561,8.561 0 0 0 1.042,-1.226 17.216,17.216 0 0 0 5.458,-3.374 0.214,0.214 0 0 1 0.123,-0.061 3.97,3.97 0 0 1 1.287,-0.306 m -8.029,-1.716 a 27.867,27.867 0 0 0 2.084,-2.881 c 0.919,-1.471 2.145,-4.045 2.942,-5.639 0.368,-0.735 1.165,-0.429 1.165,0.735 0,1.655 -1.287,4.413 -2.329,5.823 a 14.368,14.368 0 0 1 -3.984,3.861 3.228,3.228 0 0 0 0.123,-1.9 m 3.555,0.245 c 0.49,-0.49 2.39,-1.9 3.616,-3 a 3.706,3.706 0 0 1 1.1,-0.735 4.644,4.644 0 0 1 -0.858,2.819 9.507,9.507 0 0 1 -2.633,2.755 21.885,21.885 0 0 1 -3.126,2.023 4.208,4.208 0 0 0 -2.636,0 0.38,0.38 0 0 0 0.123,-0.245 29.276,29.276 0 0 0 4.413,-3.616 m -5.577,1.777 a 14.425,14.425 0 0 0 1.1,-1.777 c 0.306,-0.613 0.613,-0.49 0.613,0.123 a 5.216,5.216 0 0 1 -1.287,3.126 5.982,5.982 0 0 1 -1.594,1.348 2.382,2.382 0 0 0 -0.061,-1.594 10.991,10.991 0 0 0 1.226,-1.226 m 0.613,2.636 a 6.7,6.7 0 0 1 1.042,-0.184 2.846,2.846 0 0 1 1.594,0.123 15.642,15.642 0 0 1 -2.881,2.145 c -1.165,0.613 -1.961,0.981 -2.39,1.165 a 4.988,4.988 0 0 0 -1.165,-0.306 c 0,0 0.306,-0.306 0.919,-0.858 a 8.623,8.623 0 0 0 2.881,-2.084 m -10.846,10.234 a 3.814,3.814 0 0 0 4.045,-1.532 2.69,2.69 0 0 0 -0.429,-3.065 c -0.858,-1.226 -1.348,-1.532 0.981,-4.106 a 28.529,28.529 0 0 1 3.31,-3.31 1.405,1.405 0 0 1 0.8,1.594 c -0.061,0.858 -1.471,2.206 -1.9,2.7 -0.429,0.429 -0.8,0.858 -0.8,0.858 a 9.159,9.159 0 0 1 1.348,0.123 3.127,3.127 0 0 1 0.858,0.306 3.778,3.778 0 0 1 -0.429,1.1 c -0.306,0.306 -0.735,0.8 -0.735,0.8 a 3.55,3.55 0 0 1 1.042,0.674 c 0.368,0.368 0.613,0.674 0.613,0.674 a 2.894,2.894 0 0 1 -0.674,1.042 5.56,5.56 0 0 1 -1.1,0.674 3.173,3.173 0 0 1 0.919,0.858 1.64,1.64 0 0 1 0.306,0.674 2.373,2.373 0 0 1 -0.919,0.429 3.163,3.163 0 0 1 -0.674,0.123 h -0.368 a 3.73,3.73 0 0 1 -0.184,1.165 1.548,1.548 0 0 1 -0.613,0.735 3.883,3.883 0 0 1 -1.165,-0.245 6.536,6.536 0 0 1 -0.858,-0.613 5.459,5.459 0 0 1 -0.613,0.981 2.044,2.044 0 0 1 -0.613,0.429 5.712,5.712 0 0 1 -0.8,-0.429 3.353,3.353 0 0 1 -0.613,-0.49 l -1.287,0.919 c 0,0 -0.552,-0.184 -1.287,-1.471 a 0.06,0.06 0 0 0 -0.061,-0.061 c -0.552,-1.226 -0.8,-1.961 -0.981,-2.452 a 13.968,13.968 0 0 0 2.881,0.919 m -1.777,-6.987 a 2.574,2.574 0 0 1 2.145,3.739 c -0.919,1.716 -2.7,1.532 -3.065,0.981 a 1.308,1.308 0 0 1 0.245,-1.716 c 0.49,-0.368 1.287,0 1.287,0 l -0.061,-0.061 a 1.15,1.15 0 0 0 -1.839,-0.123 1.107,1.107 0 0 0 -0.429,0.919 h -1.961 c 0,-0.245 0.061,-0.306 0.061,-0.552 a 3.716,3.716 0 0 1 3.616,-3.187 m -10.971,0.368 a 0.7,0.7 0 0 1 0.735,-0.674 0.736,0.736 0 0 1 0.735,0.674 0.754,0.754 0 0 1 -0.429,0.674 v 2.758 h -0.552 v -2.761 a 0.717,0.717 0 0 1 -0.49,-0.674 m 1.227,-1.165 a 1.607,1.607 0 0 0 -0.981,-0.061 1.3,1.3 0 0 0 -0.858,0.919 c -0.123,0 -0.184,-0.061 -0.306,-0.061 a 1.359,1.359 0 0 0 -1.348,1.348 1.309,1.309 0 0 0 0.49,1.042 v 0.8 h -0.429 a 5.642,5.642 0 0 0 -0.735,-1.839 6.832,6.832 0 0 0 1.287,-2.274 7.435,7.435 0 0 0 0.429,-2.023 3.4,3.4 0 0 1 0.368,0.49 l 0.49,0.858 0.245,0.552 0.184,-0.552 c 0,0 0.184,-0.552 0.368,-1.348 0.061,-0.306 0.061,-0.552 0.123,-0.8 a 3.462,3.462 0 0 1 0.552,0.858 c 0.245,0.429 0.429,0.919 0.552,1.1 a 1.136,1.136 0 0 1 0.123,0.429 4.68,4.68 0 0 0 -0.552,0.552 m -2.821,2.094 a 0.745,0.745 0 0 1 0.735,-0.735 0.7,0.7 0 0 1 0.674,0.735 0.754,0.754 0 0 1 -0.429,0.674 v 1.839 h -0.551 v -1.839 a 0.754,0.754 0 0 1 -0.429,-0.674 m 10.848,3 0.061,0.8 h -14.035 v -0.8 z m -4.106,-4.29 a 1.323,1.323 0 0 0 -0.858,-0.981 1.291,1.291 0 0 0 -1.1,0.061 0.915,0.915 0 0 0 -0.368,-0.368 1.442,1.442 0 0 0 0.123,-0.49 6.045,6.045 0 0 1 0.552,-1.1 c 0.184,-0.306 0.429,-0.613 0.552,-0.858 a 4.218,4.218 0 0 0 0.123,0.8 7.3,7.3 0 0 0 0.368,1.348 l 0.184,0.552 0.245,-0.552 a 3.415,3.415 0 0 1 0.49,-0.858 3.4,3.4 0 0 1 0.368,-0.49 13.3,13.3 0 0 0 0.429,2.023 6.777,6.777 0 0 0 1.226,2.206 4.711,4.711 0 0 0 -0.735,1.9 h -0.49 v -0.8 a 1.309,1.309 0 0 0 0.49,-1.042 c 0,-0.8 -0.49,-1.41 -1.594,-1.348 m -0.429,1.287 a 0.745,0.745 0 0 1 0.735,-0.735 0.7,0.7 0 0 1 0.674,0.735 0.754,0.754 0 0 1 -0.429,0.674 v 1.839 h -0.552 v -1.839 a 0.754,0.754 0 0 1 -0.429,-0.674 m -1.532,-0.981 a 0.674,0.674 0 1 1 1.348,0 0.717,0.717 0 0 1 -0.49,0.674 v 2.819 h -0.552 v -2.822 a 1.153,1.153 0 0 1 -0.306,-0.674 m 11.886,-6.126 a 2.131,2.131 0 0 0 -0.858,-0.919 c -0.674,-0.429 -0.981,-0.368 -0.981,-0.368 a 0.833,0.833 0 0 1 0.919,-0.123 c 0.552,0.245 0.735,0.429 0.858,0.8 a 1.192,1.192 0 0 1 0.061,0.613 m 0.184,-1.777 c 0.613,0.184 1.716,0.674 2.145,0.8 a 2.629,2.629 0 0 0 2.084,-0.123 1.492,1.492 0 0 1 -1.716,0.735 6.744,6.744 0 0 1 -2.268,-0.858 5.209,5.209 0 0 0 -1.226,-0.49 1.97,1.97 0 0 1 0.981,-0.061 m 0.981,-3.616 a 3,3 0 0 1 1.471,0.552 c 0.613,0.49 0.8,0.919 0.674,1.471 -0.184,0.613 -0.429,0.735 -0.429,0.735 a 2.76,2.76 0 0 0 -1.594,-0.552 3.79,3.79 0 0 0 -2.329,0.674 c -0.123,0.123 -0.184,0 -0.123,-0.123 a 8.125,8.125 0 0 0 0.613,-0.674 c 0.429,-0.552 0.613,-0.8 0.981,-1.226 a 8.049,8.049 0 0 1 0.735,-0.858 m -9.5,0.245 h 1.1 a 13.055,13.055 0 0 1 1.655,-0.123 4.523,4.523 0 0 1 2.268,0.245 c 1.042,0.429 1.594,0.613 1.594,0.613 a 3.11,3.11 0 0 0 0.674,-0.674 2.479,2.479 0 0 0 0.368,-0.674 0.933,0.933 0 0 1 -0.552,0.061 5.539,5.539 0 0 0 -2.145,-0.245 11.933,11.933 0 0 1 -3.31,0.061 c -1.165,-0.184 -1.348,-0.552 -1.348,-0.552 a 8.569,8.569 0 0 0 2.513,-0.184 c 2.39,-0.429 4.842,-1.594 5.577,-0.674 a 1.244,1.244 0 0 1 -0.061,1.042 7.374,7.374 0 0 1 -1.226,1.9 c -0.429,0.429 -0.8,0.8 -1.1,1.042 a 7.449,7.449 0 0 1 -1.594,0.858 10.463,10.463 0 0 1 -1.594,0.429 l 1.655,-2.7 -0.552,0.123 a 9.691,9.691 0 0 0 -2.145,0.8 c -0.306,0.184 -0.735,0.49 -1.1,0.735 a 4,4 0 0 0 0.123,-0.674 1.956,1.956 0 0 1 0.368,-0.674 c 0,-0.061 0.123,-0.123 0.184,-0.123 l 0.184,-0.123 c -0.123,0 -0.306,-0.061 -0.674,-0.123 a 4.726,4.726 0 0 1 -0.858,-0.368 m 5.271,-0.429 a 4.222,4.222 0 0 0 0.429,0.061 l -0.061,0.245 -0.429,-0.123 -0.368,-0.123 c 0,0 0.061,-0.123 0.429,-0.061 m 1.042,0.552 c 0,0 0.061,0 0.123,-0.123 0.184,-0.184 0.184,-0.306 0.184,-0.306 l 0.306,0.061 -0.306,0.429 z m -9.932,7.107 c 0.245,-0.613 0.49,-1.1 0.735,-1.655 a 7.106,7.106 0 0 1 1.41,-1.532 c 0,0.123 -0.061,0.245 -0.061,0.429 a 4.6,4.6 0 0 0 -0.123,1.226 v 0.368 l 0.061,0.858 0.429,-0.735 a 7.6,7.6 0 0 1 0.8,-1.165 4.872,4.872 0 0 1 0.858,-0.8 5.107,5.107 0 0 0 -0.245,0.919 5.947,5.947 0 0 0 -0.064,1.045 5.787,5.787 0 0 0 0.061,0.858 l 0.061,0.552 0.368,-0.49 a 15.607,15.607 0 0 1 1.165,-1.41 c 0.429,-0.429 0.858,-0.8 1.226,-1.1 0.368,-0.245 0.613,-0.429 0.613,-0.429 l -0.245,-0.429 a 9.95,9.95 0 0 0 -1.961,1.594 c -0.245,0.245 -0.552,0.613 -0.8,0.919 v -0.187 a 5.272,5.272 0 0 1 0.061,-0.981 c 0.061,-0.245 0.184,-0.613 0.245,-0.919 a 4.769,4.769 0 0 0 0.184,-0.552 l 0.245,-0.613 -0.552,0.306 a 5.736,5.736 0 0 0 -1.594,1.287 c -0.123,0.184 -0.306,0.368 -0.429,0.552 0,-0.245 0.061,-0.429 0.061,-0.674 0.123,-0.552 0.245,-0.981 0.245,-0.981 l 0.123,-0.552 -0.49,0.306 a 6.051,6.051 0 0 0 -0.735,0.552 c 0.061,-0.123 0.123,-0.184 0.184,-0.306 a 12.274,12.274 0 0 1 0.919,-1.165 6.254,6.254 0 0 0 -0.919,-0.245 3.3,3.3 0 0 1 -0.49,-0.061 l 1.226,-0.368 a 14.38,14.38 0 0 0 1.348,-0.613 c 0,0.061 -0.061,0.123 -0.061,0.184 a 10.928,10.928 0 0 0 -0.245,1.348 l -0.061,0.613 0.49,-0.368 c 0,0 0.981,-0.735 1.471,-1.042 a 10.938,10.938 0 0 1 1.41,-0.552 h 0.061 l -1.594,2.574 0.49,-0.061 a 9.16,9.16 0 0 0 2.206,-0.552 l 0.245,-0.123 a 4.912,4.912 0 0 0 1.471,-0.858 6.14,6.14 0 0 0 1.41,-1.41 c 0.613,-0.919 1.165,-1.716 1.165,-1.716 h 0.245 a 0.882,0.882 0 0 0 0.184,0.123 c 0,0 -0.368,0.368 -0.613,0.674 -0.245,0.306 -0.919,1.165 -1.348,1.839 a 8.394,8.394 0 0 1 -1.655,1.839 9.239,9.239 0 0 0 -0.8,0.552 l -0.49,0.061 a 5.648,5.648 0 0 0 -2.574,2.329 c -1.287,2.023 -1.1,3.616 -0.735,4.413 0.061,0.123 0.245,0.429 0.368,0.613 l -0.368,0.368 c -0.061,-0.123 -0.184,-0.245 -0.306,-0.429 a 8.972,8.972 0 0 1 -0.8,-1.532 15.781,15.781 0 0 1 -0.49,-2.452 l 0.061,-0.674 -0.368,0.429 a 11.451,11.451 0 0 0 -0.8,1.042 1.536,1.536 0 0 0 -0.245,0.429 2.2,2.2 0 0 1 -0.123,-0.674 c -0.123,-0.735 -0.184,-1.287 -0.184,-1.287 v -0.552 l -0.368,0.368 a 6.409,6.409 0 0 0 -0.981,1.348 c -0.123,0.184 -0.184,0.306 -0.306,0.49 a 6.465,6.465 0 0 1 0.306,-1.165 m -0.8,3 a 0.745,0.745 0 0 1 0.735,0.735 0.754,0.754 0 0 1 -0.429,0.674 v 3.126 h -0.594 v -3.181 a 0.7,0.7 0 0 1 0.306,-1.348 m -12.751,-12.381 c 0.674,-0.919 3.187,0.245 5.516,0.674 a 8.569,8.569 0 0 0 2.513,0.184 c 0,0 -0.245,0.368 -1.348,0.552 a 12.327,12.327 0 0 1 -3.371,-0.061 4.537,4.537 0 0 0 -2.145,0.244 0.933,0.933 0 0 1 -0.552,-0.061 2.479,2.479 0 0 0 0.368,0.674 6.344,6.344 0 0 0 0.674,0.674 c 0,0 0.613,-0.184 1.655,-0.613 a 4.523,4.523 0 0 1 2.268,-0.245 13.055,13.055 0 0 1 1.655,0.123 5.7,5.7 0 0 0 1.1,0 3.194,3.194 0 0 1 -0.8,0.306 5.465,5.465 0 0 1 -0.674,0.123 l 0.184,0.123 c 0.061,0.061 0.123,0.123 0.184,0.123 a 2.928,2.928 0 0 1 0.368,0.674 1.892,1.892 0 0 1 0.123,0.674 10.832,10.832 0 0 0 -1.042,-0.735 11.042,11.042 0 0 0 -2.145,-0.8 l -0.552,-0.123 1.655,2.7 c -0.429,-0.123 -1.042,-0.245 -1.594,-0.429 a 7.449,7.449 0 0 1 -1.594,-0.858 c -0.306,-0.245 -0.674,-0.613 -1.1,-1.042 a 7.374,7.374 0 0 1 -1.226,-1.9 0.833,0.833 0 0 1 -0.123,-0.981 m 3.31,1.716 c 0,0 0.061,0 -0.306,0.123 l -0.368,0.123 -0.061,-0.245 a 1.5,1.5 0 0 1 0.429,-0.061 c 0.368,0 0.306,0.061 0.306,0.061 m -1.348,0.552 -0.306,0.061 -0.308,-0.43 0.306,-0.061 a 3.183,3.183 0 0 0 0.184,0.306 l 0.123,0.123 m -3.31,1.9 a 2.226,2.226 0 0 0 -1.532,0.49 c 0,0 -0.306,-0.123 -0.429,-0.735 -0.184,-0.613 0.061,-0.981 0.674,-1.471 a 3,3 0 0 1 1.471,-0.552 c 0,0 0.429,0.429 0.8,0.858 0.371,0.429 0.552,0.674 0.981,1.226 a 8.125,8.125 0 0 0 0.613,0.674 c 0.061,0.061 0,0.245 -0.123,0.123 a 3.852,3.852 0 0 0 -2.452,-0.613 m 0.858,1.9 a 6.744,6.744 0 0 1 -2.268,0.858 1.492,1.492 0 0 1 -1.716,-0.735 2.514,2.514 0 0 0 2.023,0.123 c 0.429,-0.184 1.594,-0.613 2.206,-0.8 a 1.8,1.8 0 0 1 0.919,0.061 4.363,4.363 0 0 0 -1.165,0.49 m 1.287,0.368 a 2.131,2.131 0 0 0 -0.858,0.919 1.192,1.192 0 0 1 0.061,-0.613 c 0.123,-0.368 0.306,-0.552 0.858,-0.8 a 0.833,0.833 0 0 1 0.919,0.123 c 0,0 -0.306,-0.061 -0.981,0.368 m 6.436,6.619 c 0.368,-0.735 0.552,-2.39 -0.735,-4.413 a 4.935,4.935 0 0 0 -2.574,-2.329 l -0.49,-0.061 a 9.24,9.24 0 0 0 -0.8,-0.552 10.122,10.122 0 0 1 -1.655,-1.839 c -0.429,-0.613 -1.042,-1.532 -1.287,-1.839 -0.245,-0.307 -0.613,-0.674 -0.613,-0.674 a 0.882,0.882 0 0 0 0.184,-0.123 c 0.061,-0.061 0.245,0 0.245,0 0,0 0.552,0.8 1.165,1.716 a 7.642,7.642 0 0 0 1.41,1.41 v 0 a 4.912,4.912 0 0 0 1.471,0.858 l 0.245,0.123 a 14.416,14.416 0 0 0 2.206,0.552 l 0.49,0.061 -1.594,-2.574 h 0.061 a 10.938,10.938 0 0 1 1.41,0.552 12.351,12.351 0 0 1 1.476,1.047 l 0.49,0.368 -0.061,-0.613 a 10.928,10.928 0 0 0 -0.245,-1.348 c 0,-0.061 -0.061,-0.123 -0.061,-0.184 a 4.634,4.634 0 0 0 1.348,0.613 l 1.226,0.368 a 2.319,2.319 0 0 1 -0.49,0.061 6.254,6.254 0 0 0 -0.919,0.245 12.273,12.273 0 0 1 0.919,1.165 c 0.061,0.123 0.123,0.184 0.184,0.306 a 6.051,6.051 0 0 0 -0.735,-0.552 l -0.49,-0.306 0.123,0.552 c 0,0 0.123,0.429 0.245,0.981 a 2.3,2.3 0 0 1 0.061,0.674 3.368,3.368 0 0 0 -0.429,-0.552 5.736,5.736 0 0 0 -1.594,-1.287 l -0.552,-0.306 0.245,0.613 a 2.452,2.452 0 0 1 0.184,0.552 2.944,2.944 0 0 1 0.245,0.919 5.967,5.967 0 0 1 0.061,0.981 v 0.179 c -0.245,-0.306 -0.552,-0.674 -0.8,-0.919 a 13.6,13.6 0 0 0 -1.955,-1.59 l -0.245,0.429 a 3.6,3.6 0 0 1 0.613,0.429 6.388,6.388 0 0 1 1.226,1.1 c 0.429,0.49 1.1,1.41 1.165,1.41 l 0.368,0.49 0.061,-0.552 a 5.787,5.787 0 0 0 0.061,-0.858 7.437,7.437 0 0 0 -0.061,-1.1 6.932,6.932 0 0 0 -0.245,-0.919 9.442,9.442 0 0 1 0.858,0.8 7.6,7.6 0 0 1 0.8,1.165 l 0.429,0.735 0.061,-0.858 v -0.368 a 5.279,5.279 0 0 0 -0.123,-1.287 c 0,-0.123 -0.061,-0.245 -0.061,-0.429 a 7.106,7.106 0 0 1 1.41,1.532 q 0.368,0.735 0.735,1.655 l 0.368,1.1 a 2.15,2.15 0 0 0 -0.306,-0.49 10.608,10.608 0 0 0 -0.981,-1.348 l -0.429,-0.184 v 0.552 a 5.878,5.878 0 0 1 -0.184,1.287 3.163,3.163 0 0 0 -0.123,0.674 2.665,2.665 0 0 1 -0.245,-0.429 11.45,11.45 0 0 0 -0.8,-1.042 l -0.368,-0.429 -0.061,0.613 a 7.925,7.925 0 0 1 -0.49,2.452 4.462,4.462 0 0 1 -0.735,1.532 3.4,3.4 0 0 1 -0.368,0.49 c -0.123,-0.123 -0.184,-0.306 -0.306,-0.368 0.123,-0.245 0.306,-0.49 0.368,-0.613 m -5.332,3.8 a 2.56,2.56 0 0 1 2.14,-3.739 3.774,3.774 0 0 1 3.616,3.248 1.7,1.7 0 0 1 0.061,0.552 h -2.022 a 1.769,1.769 0 0 0 -0.368,-1.042 1.392,1.392 0 0 0 -2.084,-0.123 c 0,0 -0.245,0.429 -0.123,0.552 0.122,0.123 0.429,0.061 0.429,0.061 a 0.9,0.9 0 0 1 1.042,-0.061 1.08,1.08 0 0 1 0.245,1.532 c -0.245,0.552 -2.023,0.8 -2.942,-0.981 m -7.6,-8.765 a 38.442,38.442 0 0 1 3.31,3.31 c 2.39,2.636 1.9,2.881 0.981,4.106 -0.858,1.226 -0.981,2.206 -0.429,3.065 a 3.766,3.766 0 0 0 4.045,1.532 10.682,10.682 0 0 0 2.758,-0.981 12.03,12.03 0 0 1 -0.981,2.452 0.06,0.06 0 0 1 -0.061,0.061 c -0.735,1.287 -1.287,1.471 -1.287,1.471 l -1.226,-0.858 c 0,0 -0.368,0.306 -0.613,0.49 a 5.711,5.711 0 0 1 -0.8,0.429 2.044,2.044 0 0 1 -0.613,-0.429 5.459,5.459 0 0 1 -0.613,-0.981 6.535,6.535 0 0 1 -0.858,0.613 4.565,4.565 0 0 1 -1.226,0.245 2.041,2.041 0 0 1 -0.613,-0.735 3.73,3.73 0 0 1 -0.184,-1.165 h -0.368 a 3.162,3.162 0 0 1 -0.669,-0.121 4.683,4.683 0 0 1 -0.858,-0.429 2.092,2.092 0 0 1 0.306,-0.674 7.476,7.476 0 0 1 0.919,-0.858 c 0,0 -0.674,-0.368 -1.1,-0.674 a 2.894,2.894 0 0 1 -0.674,-1.042 3.128,3.128 0 0 1 0.613,-0.674 3.55,3.55 0 0 1 1.042,-0.674 c 0,0 -0.429,-0.49 -0.735,-0.8 a 3.778,3.778 0 0 1 -0.429,-1.1 1.773,1.773 0 0 1 0.858,-0.306 9.819,9.819 0 0 1 1.348,-0.123 c 0,0 -0.368,-0.368 -0.8,-0.858 -0.429,-0.429 -1.839,-1.839 -1.9,-2.7 a 1.483,1.483 0 0 1 0.858,-1.594 m -3.371,7.171 a 15.025,15.025 0 0 0 2.942,0.49 c -0.061,0 -0.061,0.061 -0.123,0.061 a 3.583,3.583 0 0 0 -0.858,0.858 2.922,2.922 0 0 0 0.245,0.49 7.19,7.19 0 0 1 -1.655,0 8.818,8.818 0 0 1 -3,-0.981 2.681,2.681 0 0 1 1.287,-0.735 4.531,4.531 0 0 1 1.165,-0.184 m -3,-2.39 a 2.608,2.608 0 0 1 1.41,-0.429 7.524,7.524 0 0 1 1.042,-0.061 17.518,17.518 0 0 0 3.061,1.536 2.271,2.271 0 0 0 0.552,0.981 12.172,12.172 0 0 1 -2.881,-0.49 7.007,7.007 0 0 1 -3.187,-1.532 m 2.268,4.9 a 9.6,9.6 0 0 0 3.494,0.368 2.037,2.037 0 0 0 0.674,0.49 3.7,3.7 0 0 0 -0.49,0.49 11.726,11.726 0 0 1 -1.961,0.184 9.016,9.016 0 0 1 -3.559,-0.611 2.389,2.389 0 0 1 0.981,-0.735 c 0.306,-0.123 0.49,-0.245 0.674,-0.306 0.061,0.061 0.123,0.123 0.184,0.123 m 1.716,2.39 a 5.531,5.531 0 0 0 1.594,-0.123 0.479,0.479 0 0 0 -0.123,0.306 2.26,2.26 0 0 0 0.981,0.613 c -0.184,0.061 -0.613,0.306 -0.858,0.368 a 10.051,10.051 0 0 1 -3.432,0.552 2.322,2.322 0 0 1 0.613,-0.981 8.845,8.845 0 0 1 1.042,-0.735 h 0.184 m 0.674,3 a 7.813,7.813 0 0 1 0.245,-0.858 11.563,11.563 0 0 0 2.636,-1.165 3.04,3.04 0 0 0 0.245,1.1 c 0.061,0.061 0.061,0.123 0.123,0.184 a 3.931,3.931 0 0 1 -1.471,0.981 4.616,4.616 0 0 1 -1.777,0.49 c 0,0 -0.123,-0.184 0,-0.735 m 2.084,0.919 a 5.1,5.1 0 0 0 1.594,-1.287 2.081,2.081 0 0 0 0.368,0.368 2.767,2.767 0 0 0 0.8,-0.184 4.306,4.306 0 0 1 -1.1,1.961 2.928,2.928 0 0 1 -1.471,0.8 2.336,2.336 0 0 1 -0.123,-0.8 1.44,1.44 0 0 1 -0.061,-0.858 m 3.187,-0.613 v 0 a 3.528,3.528 0 0 0 0.123,-0.613 3.384,3.384 0 0 0 0.735,-0.306 3.735,3.735 0 0 0 0.429,0.735 c 0.123,0.123 0.306,0.245 0.429,0.368 a 3.664,3.664 0 0 1 -0.306,1.655 2.2,2.2 0 0 1 -1.287,1.042 2.121,2.121 0 0 1 -0.49,-0.613 1.484,1.484 0 0 1 -0.245,-0.8 14.969,14.969 0 0 0 0.613,-1.471 m -3.626,-11.572 c 0.552,0.552 0.919,0.858 0.919,0.858 a 4.988,4.988 0 0 0 -1.165,0.306 18.67,18.67 0 0 1 -2.39,-1.165 15.039,15.039 0 0 1 -2.881,-2.145 3.157,3.157 0 0 1 1.532,-0.123 c 0.49,0.061 0.858,0.184 1.042,0.184 a 7.6,7.6 0 0 0 2.943,2.085 m -3.371,-6.436 a 14.424,14.424 0 0 0 1.1,1.777 5.522,5.522 0 0 0 1.226,1.226 2.382,2.382 0 0 0 -0.061,1.594 4.55,4.55 0 0 1 -1.588,-1.351 5.216,5.216 0 0 1 -1.287,-3.126 c 0,-0.613 0.306,-0.735 0.613,-0.123 m -7.171,-8.09 c 0,-1.165 0.8,-1.471 1.165,-0.735 0.8,1.594 2.023,4.168 2.942,5.639 a 30.706,30.706 0 0 0 2.084,2.881 4.355,4.355 0 0 0 0.123,1.839 14.368,14.368 0 0 1 -3.984,-3.861 12.11,12.11 0 0 1 -2.329,-5.761 m -1.169,7.227 a 5.244,5.244 0 0 1 -0.858,-2.819 4.79,4.79 0 0 1 1.1,0.735 c 1.226,1.1 3.126,2.513 3.616,3 a 30.529,30.529 0 0 0 4.355,3.623 l 0.123,0.245 a 4.208,4.208 0 0 0 -2.636,0 c -0.429,-0.184 -0.613,-0.184 -3.126,-2.023 a 11.232,11.232 0 0 1 -2.574,-2.761 m -1.777,2.332 a 3.144,3.144 0 0 1 1.165,0 c 0.429,0.061 1.042,0.245 1.348,0.306 a 0.214,0.214 0 0 0 0.123,0.061 17.216,17.216 0 0 0 5.454,3.372 5.839,5.839 0 0 0 1.042,1.229 7.121,7.121 0 0 0 -1.226,0.123 28.4,28.4 0 0 1 -4.045,-1.839 9.513,9.513 0 0 1 -3.861,-3.252 m -0.429,4.413 a 8.641,8.641 0 0 1 1.348,-0.123 19.847,19.847 0 0 1 2.636,0.184 11.049,11.049 0 0 0 1.287,0.49 c 0.674,0.245 1.655,0.49 2.084,0.613 -0.49,0.184 -0.552,0.306 -0.552,0.306 a 7.314,7.314 0 0 0 1.777,1.532 17.149,17.149 0 0 1 -5.026,-0.8 6.416,6.416 0 0 1 -3.554,-2.202 m 0.061,3.923 a 6.557,6.557 0 0 1 1.164,-0.368 9.185,9.185 0 0 1 2.145,-0.123 9.342,9.342 0 0 0 2.636,0.429 c 1.226,0.061 2.329,0 3.065,0 a 2.813,2.813 0 0 0 -1.165,0.552 1.786,1.786 0 0 0 -0.552,0.613 c 0,0.061 0.245,0.245 0.306,0.306 a 14.1,14.1 0 0 1 -4.352,-0.061 7.16,7.16 0 0 1 -3.248,-1.348 m 0.613,3.923 a 7.051,7.051 0 0 1 1.287,-0.8 5.77,5.77 0 0 1 1.959,-0.491 11.073,11.073 0 0 0 3,-0.184 c 0.981,-0.184 1.532,-0.368 1.839,-0.429 0,0 0.306,0.184 0.429,0.245 a 2.557,2.557 0 0 0 -1.226,0.613 1.83,1.83 0 0 0 -0.552,0.8 2.433,2.433 0 0 0 0.735,0.429 11.452,11.452 0 0 1 -3.31,0.49 c -2.942,0.123 -3.739,-0.306 -4.168,-0.674 m 0.8,4.045 a 3.015,3.015 0 0 1 0.919,-1.165 5.086,5.086 0 0 1 1.226,-0.8 12.746,12.746 0 0 0 4.352,-0.8 7.626,7.626 0 0 0 1.348,-0.613 5.161,5.161 0 0 0 1.41,0.306 23.307,23.307 0 0 1 -4.474,2.452 c -2.7,1.042 -3.739,0.858 -4.781,0.613 m 2.268,3.187 a 4.761,4.761 0 0 1 1.046,-2.015 12.206,12.206 0 0 0 4.106,-1.961 c 0.123,-0.123 0.184,-0.061 0.368,-0.184 a 5.465,5.465 0 0 0 1.716,0.184 22.122,22.122 0 0 1 -4.413,3.248 5.928,5.928 0 0 1 -2.819,0.735 m 5.087,1.41 a 6.843,6.843 0 0 1 -2.39,1.1 2.006,2.006 0 0 1 0.061,-0.8 5.556,5.556 0 0 1 0.306,-1.165 11.619,11.619 0 0 0 3.801,-3.367 c 0.123,-0.184 0.674,-0.858 0.919,-1.165 a 0.777,0.777 0 0 0 0.368,-0.061 4.375,4.375 0 0 0 -0.245,0.981 6.242,6.242 0 0 0 0,1.165 0.744,0.744 0 0 0 0.306,0.061 15.893,15.893 0 0 1 -3.126,3.248 m 3.065,1.532 a 3.89,3.89 0 0 1 -2.206,1.165 3.877,3.877 0 0 1 0,-0.919 10.619,10.619 0 0 1 0.245,-1.226 12.943,12.943 0 0 0 2.636,-3.8 3.4,3.4 0 0 0 1.287,-0.245 5.059,5.059 0 0 0 0,0.981 c 0.061,0.306 0.123,0.735 0.184,0.919 a 9.123,9.123 0 0 1 -2.145,3.126 m 3.677,0.429 a 4.881,4.881 0 0 1 -2.084,1.655 c 0,0 -0.306,-0.245 -0.306,-1.839 a 11.948,11.948 0 0 0 1.655,-3.31 3.649,3.649 0 0 0 1.716,-0.919 c 0.061,0.123 0.123,0.429 0.306,0.8 0.061,0.061 0.245,0.429 0.306,0.49 a 10.545,10.545 0 0 1 -1.594,3.126 m 3.248,0.245 c -0.552,1.287 -1.287,1.41 -1.287,1.41 a 5.206,5.206 0 0 1 -0.429,-2.145 12.291,12.291 0 0 0 0.735,-2.268 3.037,3.037 0 0 0 1.226,-0.919 5.2,5.2 0 0 0 0.429,0.919 13.787,13.787 0 0 1 -0.674,3 m 1.41,-3.065 a 2.341,2.341 0 0 1 -0.49,-0.552 c -0.184,-0.306 -0.368,-0.674 -0.429,-0.8 0,-0.061 0.123,-0.368 0.184,-0.613 a 3.468,3.468 0 0 0 0.123,-1.348 c 0,0 0.245,-0.123 0.674,-0.368 a 3.463,3.463 0 0 0 0.674,-0.49 l 0.8,0.613 a 4.414,4.414 0 0 1 -0.429,1.961 3.651,3.651 0 0 1 -1.1,1.594 m 0.368,9.868 a 0.731,0.731 0 0 1 0.123,-0.8 c 0.184,-0.245 0.368,-0.735 0.552,-0.674 0.123,0.061 0.061,0.306 -0.061,0.49 -0.061,0.184 -0.368,0.429 -0.368,0.552 0.061,0.123 0.368,-0.061 0.368,-0.061 0,0 -0.123,0.368 0.061,0.429 0.184,0.061 0.245,-0.184 0.368,-0.184 0.123,0 0.306,0.429 0.552,0.49 0.246,0.061 0.552,-0.306 0.552,-0.306 l 0.552,0.123 c 0,0 0.306,0.552 -0.184,0.8 -0.49,0.248 -0.735,0 -1.165,-0.306 -0.368,-0.368 -1.226,-0.184 -1.348,-0.552 m 2.513,-0.49 c -0.061,-0.123 0.123,-0.245 0.123,-0.245 0,0 0.061,-0.184 0.123,0 0.061,0.245 0.123,0.429 0,0.429 -0.061,0.061 -0.184,0 -0.245,-0.184 m -0.197,3.192 c -0.061,-0.123 -0.368,0.123 -0.429,-0.245 -0.061,-0.306 0.123,-0.306 0.429,-0.123 0.306,0.183 0.429,0.245 0.368,0.429 -0.061,0.123 -0.245,0.123 -0.368,-0.061 m 0.674,-0.674 c -0.429,0.061 -0.8,-0.306 -1.226,-0.368 -0.429,-0.123 -0.735,0.061 -1.042,-0.306 -0.307,-0.367 -0.061,-0.552 0.061,-0.552 0.122,0 0,0.184 0.123,0.245 0.123,0.061 0.245,-0.123 0.245,-0.061 0.061,0.061 -0.061,0.245 0.061,0.306 0.122,0.061 0.123,-0.184 0.245,-0.123 a 1.456,1.456 0 0 0 0.735,0.184 c 0.184,-0.061 0.552,-0.429 0.858,-0.061 0.306,0.306 0.368,0.674 -0.061,0.735 m 0.49,-1.287 c 0,0 0.429,-0.306 0.306,0.061 -0.061,0.368 -0.123,0.613 -0.368,0.245 -0.306,-0.245 0.061,-0.306 0.061,-0.306 m 0.306,2.452 c -0.368,0 -0.552,-0.061 -0.49,-0.49 0.062,-0.429 0.061,-0.245 0.429,-0.245 0.306,-0.061 0.674,-0.061 0.674,0.245 -0.061,0.368 -0.245,0.49 -0.613,0.49 m 0.613,-0.981 c -0.184,-0.123 -0.123,-0.306 -0.061,-0.429 0.123,-0.123 0.245,-0.123 0.245,0.245 0.061,0.368 0,0.368 -0.184,0.184 m 1.419,13.178 a 2.528,2.528 0 0 1 -2.023,0.429 1.53,1.53 0 0 1 -1.287,-1.1 6.222,6.222 0 0 1 -0.123,-2.084 c 0,-0.123 0.368,-1.348 0.429,-1.655 0.061,-0.184 0.123,-0.368 -0.061,-0.368 -0.306,0.061 0.061,0.306 -0.919,0.858 a 1.982,1.982 0 0 0 -0.981,2.023 3.132,3.132 0 0 1 0.061,1.042 2.626,2.626 0 0 0 -0.184,-0.613 6.749,6.749 0 0 1 -0.368,-1.1 1.853,1.853 0 0 1 0.552,-1.655 3.757,3.757 0 0 1 0.919,-0.919 2.308,2.308 0 0 1 -0.735,-0.245 0.986,0.986 0 0 1 -0.552,-0.919 1.045,1.045 0 0 1 0.368,-0.674 1.261,1.261 0 0 0 0.184,0.8 1.844,1.844 0 0 0 1.348,0.49 3.458,3.458 0 0 0 1.961,-1.165 5.907,5.907 0 0 1 1.411,-1.171 3.071,3.071 0 0 1 1.287,-0.49 h 0.49 a 9.8,9.8 0 0 0 -3.616,3.677 3.73,3.73 0 0 0 -0.49,2.942 1.485,1.485 0 0 0 1.226,1.042 3.982,3.982 0 0 0 1.287,-0.123 1.045,1.045 0 0 1 0.919,0.245 c 0.306,0.245 0.306,0.429 0.306,0.429 a 2.161,2.161 0 0 0 -1.41,0.306 m -0.858,-17.345 0.552,-0.613 1.042,1.41 -0.245,0.245 z m 0.981,1.471 -0.184,0.184 -1.41,-0.981 0.184,-0.184 0.061,-0.123 z m 0.978,-0.554 0.245,0.061 -1.045,1.165 -0.061,-0.184 z m 0.429,0.674 1.471,1.533 -0.49,0.552 -1.594,-1.349 z m 1.839,1.777 0.123,0.123 -0.552,0.674 -0.184,-0.123 z m 0.429,0.368 9.071,9.316 -0.184,0.184 -9.378,-8.948 z m 8.826,-2.574 c 0.429,0 0.49,0.123 0.123,0.429 a 10.753,10.753 0 0 1 -2.145,0.8 c 0,0 0.735,0.061 1.165,0.123 0.43,0.062 0.552,0.123 0.306,0.429 -0.306,0.368 -2.329,0.613 -2.329,0.613 a 10.093,10.093 0 0 1 1.042,0.245 c 0.184,0.061 0.368,0.184 -0.061,0.49 a 9.02,9.02 0 0 1 -1.9,0.674 c 0,0 0.919,0.306 0.368,0.674 a 8.6,8.6 0 0 1 -1.839,0.552 c 0,0 0.8,0.245 0.613,0.552 a 3.918,3.918 0 0 1 -0.613,0.245 l -1.41,-1.41 c 2.574,-2.513 4.719,-4.413 6.374,-5.21 1.655,-0.858 1.777,-0.674 1.1,-0.061 a 5.182,5.182 0 0 1 -1.839,0.919 c 0,0 0.674,-0.061 1.042,-0.061 m -0.735,12.2 0.49,0.429 v 0 c -0.981,0.184 -0.981,-0.184 -0.981,-0.184 0,0 0.184,0.061 0.49,-0.245 m -0.858,-0.061 a 11.674,11.674 0 0 1 -1.1,-1.348 c -0.368,-0.552 -0.674,-0.919 -1.1,-1.594 l 2.755,2.755 a 1.023,1.023 0 0 1 -0.552,0.184 m 0.919,1.9 c 0.368,-0.49 0.245,-0.8 0.245,-0.8 a 1.647,1.647 0 0 0 0.613,0 0.777,0.777 0 0 0 0.368,-0.123 0.811,0.811 0 0 1 -0.123,0.8 c -0.306,0.429 -0.552,0.368 -1.1,0.49 a 0.916,0.916 0 0 1 -0.49,0 2.117,2.117 0 0 0 0.49,-0.368 m -5.884,-7.539 a 0.19,0.19 0 0 1 -0.061,0.123 10.47,10.47 0 0 1 -2.574,0.735 l -4.6,4.352 a 2.744,2.744 0 0 1 0.8,-1.287 c 1.226,-1.348 3.555,-3.432 5.21,-5.026 z m -6.558,7.845 a 0.785,0.785 0 0 1 -0.674,-0.245 1.232,1.232 0 0 1 -0.245,-1.1 1.124,1.124 0 0 0 0.613,0.245 h 0.49 a 1.268,1.268 0 0 0 -0.123,0.49 1.2,1.2 0 0 0 -0.061,0.613 m -0.123,-1.471 a 6.357,6.357 0 0 1 -0.613,-0.245 l 0.613,-0.613 a 2.665,2.665 0 0 0 0.429,0.245 2.258,2.258 0 0 0 0.981,0.123 c 0,0 -0.306,0.674 -1.41,0.49 m 1.287,-0.858 a 0.665,0.665 0 0 1 -0.552,-0.613 l 3.739,-3.555 h 0.123 c -0.061,0.184 -0.184,0.368 -0.245,0.552 a 10.771,10.771 0 0 1 -1.655,2.023 15.969,15.969 0 0 0 -1.41,1.594 m 1.1,5.21 a 2.17,2.17 0 0 1 -1.165,-0.858 1.222,1.222 0 0 1 0.613,-0.061 1.513,1.513 0 0 1 0.674,0.245 3.648,3.648 0 0 0 -0.061,-0.49 1.81,1.81 0 0 0 -0.429,-0.981 c -0.49,-0.613 -1.1,-0.49 -1.226,-0.674 a 0.848,0.848 0 0 1 -0.123,-0.429 0.741,0.741 0 0 1 0.184,-0.613 3.848,3.848 0 0 0 0.858,-0.613 2.936,2.936 0 0 0 0.49,-0.674 h -0.306 a 20.673,20.673 0 0 1 1.718,-1.967 6.447,6.447 0 0 0 1.41,-2.39 h 0.184 a 6.487,6.487 0 0 1 -0.49,1.41 c -0.306,0.613 -0.8,1.41 -1.287,2.329 a 6.115,6.115 0 0 0 -0.981,3 c 0.123,1.961 2.452,2.758 2.452,2.758 a 4.223,4.223 0 0 1 -2.513,0 m 2.452,-5.21 a 16.035,16.035 0 0 0 -0.368,2.513 7.777,7.777 0 0 0 0.123,1.961 2.3,2.3 0 0 1 -1.165,-1.9 7.212,7.212 0 0 1 0.613,-2.452 c 0.306,-0.735 1.594,-4.352 1.594,-4.352 h 0.184 c -0.123,0.981 -0.858,3.8 -0.981,4.229 m 0.368,4.9 a 8.407,8.407 0 0 1 -0.185,-2.755 40.4,40.4 0 0 1 0.8,-4.413 c 0.123,-0.674 0.245,-1.348 0.368,-1.961 0.123,0 0.123,-0.061 0.184,-0.061 0,1.165 0.061,2.881 0,4.29 a 4.8,4.8 0 0 0 -0.49,1.1 8.715,8.715 0 0 0 -0.429,2.084 5.32,5.32 0 0 0 0.123,1.594 c 0,0 -0.184,0.184 -0.368,0.123 m 1.348,2.023 -0.184,-0.184 c 0,0 -0.306,-0.368 -0.49,-0.613 a 1.7,1.7 0 0 1 -0.368,-0.674 l 0.368,-0.123 a 7.758,7.758 0 0 0 0.429,0.735 2.594,2.594 0 0 0 0.306,0.429 z m 0.061,-1.1 -0.061,-1.9 c 0,-0.8 -0.061,-2.758 -0.061,-3.248 0,0 0.919,0.674 0.858,2.7 a 3.967,3.967 0 0 1 -0.735,2.452 m 0.429,-10.052 c 0.123,0 0.184,0.061 0.245,0.061 v 0 c 0,0 1.471,3.8 1.777,4.536 a 7.1,7.1 0 0 1 0.613,2.206 2.811,2.811 0 0 1 -1.472,2.389 5.7,5.7 0 0 0 0.49,-2.329 c 0,-1.532 -1.41,-6.007 -1.655,-6.865 m 4.106,7.907 a 2.417,2.417 0 0 1 -2.513,1.532 2.7,2.7 0 0 0 1.472,-1.654 4.5,4.5 0 0 0 -0.49,-3.616 c -0.674,-1.471 -1.532,-3.555 -1.777,-4.229 h 0.184 l 0.123,0.123 c 0.184,0.306 0.674,1.226 1.287,2.39 0.735,1.532 1.1,2.084 1.41,2.758 a 4.02,4.02 0 0 1 0.306,2.7 m 0.981,-7.294 a 5.541,5.541 0 0 1 0.674,0.613 6.508,6.508 0 0 0 2.39,1.41 c 1.042,0.184 1.839,-0.061 2.084,-0.49 a 0.938,0.938 0 0 0 0.123,-0.613 0.663,0.663 0 0 1 0.245,0.368 1,1 0 0 1 -0.613,1.1 2.69,2.69 0 0 1 -1.716,0.184 c -0.613,0 -0.123,0.245 0.245,0.49 0.919,0.613 2.023,0.8 2.084,1.655 a 3.171,3.171 0 0 1 -0.123,1.287 c -0.123,0.552 -0.245,0.245 -0.245,0.245 a 1.659,1.659 0 0 0 -0.184,-0.49 c -0.368,-0.552 -0.858,-0.613 -1.165,-1.165 -0.306,-0.49 -0.8,-1.348 -1.042,-1.1 -0.184,0.061 1.287,2.206 0.245,3.616 -1.165,1.594 -2.145,0.429 -2.819,0.429 a 2.762,2.762 0 0 0 -0.919,0.368 3.557,3.557 0 0 1 0.368,-1.042 1.849,1.849 0 0 1 0.981,-0.306 1.494,1.494 0 0 0 1.532,-1.471 3.453,3.453 0 0 0 -0.49,-1.348 l 0.245,-0.306 -4.045,-4.106 h 0.184 a 4.382,4.382 0 0 1 1.961,0.674 m 1.226,-5.577 a 2.935,2.935 0 0 1 -0.674,0.306 0.871,0.871 0 0 1 -0.368,0.123 c -0.919,0.368 -1.042,1.41 -1.226,2.7 -0.184,1.29 -0.429,1.1 -0.919,1.1 h -0.8 l -0.981,-0.981 a 1.464,1.464 0 0 0 0.429,-0.184 0.5,0.5 0 0 0 0.123,-0.674 4.4,4.4 0 0 0 1.348,-0.49 c 0.613,-0.368 0.245,-0.8 0.245,-0.8 a 5.065,5.065 0 0 0 1.348,-0.613 c 0.674,-0.429 0.184,-0.919 0.184,-0.919 a 1.747,1.747 0 0 0 1.042,-0.49 c 0.735,-0.8 -0.123,-0.919 -0.123,-0.919 a 2.707,2.707 0 0 0 0.981,-0.552 c 0.613,-0.552 -0.061,-0.8 -0.061,-0.8 0,0 1.042,-0.735 1.042,-1.348 0,-0.49 -0.674,-0.429 -1.1,-0.306 a 11.165,11.165 0 0 0 -2.7,1.471 55.693,55.693 0 0 0 -5.026,4.352 l -1.777,-1.839 -2.452,-2.636 -0.245,-0.123 -1.471,-1.655 -1.777,2.023 1.961,1.41 0.061,0.184 2.819,2.206 1.9,1.716 c -0.674,0.735 -1.226,1.287 -2.023,2.023 h -0.184 c -0.429,0 -0.735,0.184 -0.919,-1.1 -0.184,-1.284 -0.245,-2.329 -1.226,-2.7 -0.306,-0.123 -0.552,-0.245 -1.042,-0.49 0.123,-0.49 -0.184,-0.8 -0.368,-0.8 a 0.559,0.559 0 0 0 -0.429,0.306 c -0.061,-0.061 -0.061,0 -0.123,-0.061 l 0.123,-0.245 c 0.184,-0.306 0.184,-0.919 -0.245,-0.981 a 0.478,0.478 0 0 0 -0.429,0.061 c 0,0 -0.061,0.123 -0.123,-0.061 a 1.043,1.043 0 0 1 -0.061,-0.429 2.761,2.761 0 0 0 -0.123,-0.858 c -0.123,-0.429 -0.49,-0.49 -0.735,-0.245 -0.184,0.184 -0.061,0.429 -0.245,0.613 h -0.061 a 3.248,3.248 0 0 1 -0.49,-0.919 c -1.226,-2.819 -0.429,-6.5 -0.061,-7.968 a 40.825,40.825 0 0 1 2.267,-5.579 8.346,8.346 0 0 0 0.8,-2.39 l 2.145,-0.552 a 20.042,20.042 0 0 1 -0.8,3.432 c -0.429,1.532 -1.287,3.861 -1.532,5.026 -0.306,1.226 -0.552,3.923 0.613,5.516 a 6.757,6.757 0 0 0 3.371,2.574 v -16.115 l 0.552,-0.429 v 16.793 a 8.357,8.357 0 0 0 1.042,0.245 v -16.609 l 0.552,-0.429 v 17.161 a 5.608,5.608 0 0 0 1.042,0.061 v -16.793 l 0.552,-0.429 v 17.222 c 0.368,0 0.735,-0.061 1.042,-0.061 v -16.732 l 0.552,-0.429 v 17.038 c 0.306,-0.061 0.674,-0.184 1.042,-0.245 v -16.364 l 0.368,-0.429 v 16.61 a 7.022,7.022 0 0 0 3.369,-2.572 c 1.165,-1.655 0.858,-4.352 0.613,-5.516 -0.306,-1.226 -1.1,-3.555 -1.532,-5.026 a 14.3,14.3 0 0 1 -0.674,-2.881 l 1.961,-0.49 c 0,0.184 0.061,0.306 0.061,0.49 v 0.061 a 9.236,9.236 0 0 0 0.674,2.084 1.035,1.035 0 0 1 0.123,0.306 50.471,50.471 0 0 1 2.267,5.572 c 0.368,1.532 1.226,5.21 -0.061,7.968 l -0.184,0.368 c -0.123,0.184 -0.184,0.306 -0.368,0.552 h -0.061 c -0.245,-0.184 -0.061,-0.429 -0.245,-0.613 a 0.461,0.461 0 0 0 -0.735,0.245 1.638,1.638 0 0 0 -0.123,0.858 1.043,1.043 0 0 1 -0.061,0.429 0.134,0.134 0 0 1 -0.184,-0.061 c 0,0 -0.123,-0.184 -0.429,-0.061 -0.429,0.123 -0.429,0.674 -0.245,0.981 l 0.123,0.245 c -0.061,0.061 -0.061,0 -0.123,0.061 a 0.637,0.637 0 0 0 -0.49,-0.306 c -0.123,0 -0.429,0.306 -0.306,0.8 m 2.39,-2.513 c 0,0.184 -0.184,0.245 -0.245,0.184 -0.061,0 -0.061,-0.184 0,-0.429 0.061,-0.245 0.123,0 0.123,0 0,0 0.184,0.123 0.123,0.245 m -0.858,1.594 c -0.245,0.306 -0.306,0.061 -0.368,-0.245 -0.061,-0.368 0.306,-0.061 0.306,-0.061 0,0 0.306,0 0.061,0.306 m -1.226,0.919 c 0.061,-0.306 0.184,-0.306 0.245,-0.245 0.123,0.123 0.184,0.245 -0.061,0.429 -0.123,0.184 -0.184,0.184 -0.184,-0.184 m 0.858,1.165 c -0.368,0 -0.552,-0.123 -0.552,-0.49 0,-0.367 0.306,-0.306 0.674,-0.245 0.306,0.061 0.368,-0.184 0.429,0.245 0,0.429 -0.184,0.49 -0.552,0.49 m 1.41,-0.49 c -0.061,0.123 -0.306,0.184 -0.368,0.061 -0.062,-0.123 0.061,-0.245 0.368,-0.429 0.307,-0.184 0.49,-0.184 0.429,0.123 0,0.368 -0.306,0.123 -0.429,0.245 m 1.655,-1.41 c -0.306,0.368 -0.674,0.245 -1.042,0.306 a 2.619,2.619 0 0 1 -1.226,0.368 c -0.429,-0.061 -0.429,-0.368 -0.123,-0.735 0.306,-0.367 0.674,0 0.858,0.061 a 1.456,1.456 0 0 0 0.735,-0.184 c 0.123,-0.061 0.123,0.123 0.245,0.123 0.123,-0.061 0,-0.245 0.061,-0.306 0.061,-0.061 0.123,0.123 0.245,0.061 0.122,-0.062 0.061,-0.245 0.123,-0.245 0.184,0 0.429,0.123 0.123,0.552 m 0.061,-1.41 c 0.184,-0.061 0.123,-0.429 0.123,-0.429 0,0 0.306,0.184 0.368,0.061 0.062,-0.123 -0.245,-0.368 -0.368,-0.552 -0.061,-0.184 -0.184,-0.429 -0.061,-0.49 0.123,-0.061 0.306,0.429 0.552,0.674 a 0.731,0.731 0 0 1 0.123,0.8 c -0.123,0.368 -0.981,0.123 -1.41,0.429 -0.429,0.306 -0.674,0.552 -1.165,0.306 -0.491,-0.246 -0.184,-0.8 -0.184,-0.8 l 0.552,-0.121 c 0,0 0.306,0.368 0.552,0.306 0.246,-0.062 0.429,-0.49 0.552,-0.49 0.061,0.123 0.123,0.429 0.368,0.306 m 1.471,-10.3 a 1.384,1.384 0 0 1 -0.49,0.552 4.709,4.709 0 0 1 -1.226,-1.532 4.414,4.414 0 0 1 -0.429,-1.961 l 0.8,-0.613 c 0,0 0.245,0.184 0.674,0.49 a 4.136,4.136 0 0 0 0.735,0.306 5.5,5.5 0 0 0 0.123,1.348 c 0.061,0.245 0.184,0.552 0.184,0.613 a 2.75,2.75 0 0 1 -0.368,0.8 m 2.268,5.026 c 0,0 -0.8,-0.123 -1.287,-1.41 a 9.22,9.22 0 0 1 -0.613,-3 c 0.123,-0.245 0.368,-0.8 0.429,-0.919 a 3.5,3.5 0 0 0 1.226,0.919 19.914,19.914 0 0 0 0.666,2.259 5.206,5.206 0 0 1 -0.429,2.145 m 4.045,0 a 4.881,4.881 0 0 1 -2.084,-1.655 11.376,11.376 0 0 1 -1.594,-3.126 c 0.061,-0.061 0.245,-0.429 0.306,-0.49 0.184,-0.368 0.245,-0.674 0.306,-0.8 a 3.489,3.489 0 0 0 1.655,0.919 11.948,11.948 0 0 0 1.655,3.31 c 0.061,1.594 -0.245,1.839 -0.245,1.839 m 3.861,-0.919 a 3.454,3.454 0 0 1 -2.206,-1.165 9.732,9.732 0 0 1 -2.145,-3.126 3.472,3.472 0 0 0 0.184,-0.919 5.059,5.059 0 0 0 0,-0.981 3.63,3.63 0 0 0 1.287,0.245 12.943,12.943 0 0 0 2.636,3.8 c 0,0.123 0.184,0.858 0.245,1.226 v 0.919 m 3.187,-1.594 a 5.348,5.348 0 0 1 -2.39,-1.1 14.491,14.491 0 0 1 -3,-3.248 0.744,0.744 0 0 0 0.306,-0.061 6.242,6.242 0 0 0 0,-1.165 5.561,5.561 0 0 0 -0.245,-0.981 0.777,0.777 0 0 1 0.368,0.061 c 0.245,0.306 0.8,0.981 0.919,1.165 a 12.291,12.291 0 0 0 3.8,3.371 5.557,5.557 0 0 1 0.306,1.165 6.311,6.311 0 0 0 -0.061,0.8 m 2.7,-2.513 a 7.131,7.131 0 0 1 -2.819,-0.735 18.184,18.184 0 0 1 -4.413,-3.248 5.465,5.465 0 0 0 1.716,-0.184 2.016,2.016 0 0 0 0.368,0.184 15.1,15.1 0 0 0 4.104,1.961 3.98,3.98 0 0 1 1.042,2.023 m 1.348,-4.413 a 3.015,3.015 0 0 1 0.919,1.165 c -1.042,0.245 -2.084,0.429 -4.781,-0.613 a 25.85,25.85 0 0 1 -4.474,-2.452 6.24,6.24 0 0 0 1.41,-0.306 7.626,7.626 0 0 0 1.348,0.613 13.075,13.075 0 0 0 4.352,0.8 8.084,8.084 0 0 1 1.226,0.8 m 0.429,-3.555 a 4.62,4.62 0 0 1 1.287,0.8 c -0.429,0.306 -1.226,0.735 -4.106,0.613 a 11.109,11.109 0 0 1 -3.31,-0.49 2.433,2.433 0 0 0 0.735,-0.429 2.861,2.861 0 0 0 -0.552,-0.8 2.557,2.557 0 0 0 -1.226,-0.613 c 0.123,-0.061 0.429,-0.245 0.429,-0.245 a 17.315,17.315 0 0 0 1.839,0.429 14.273,14.273 0 0 0 3,0.184 4.745,4.745 0 0 1 1.9,0.552 m -1.41,-1.9 a 14.1,14.1 0 0 1 -4.352,0.061 c 0.061,-0.061 0.306,-0.245 0.306,-0.306 a 1.786,1.786 0 0 0 -0.552,-0.613 2.813,2.813 0 0 0 -1.165,-0.552 25.194,25.194 0 0 0 3.065,0 9.342,9.342 0 0 0 2.636,-0.429 14.516,14.516 0 0 1 2.145,0.123 6.558,6.558 0 0 1 1.165,0.368 5.539,5.539 0 0 1 -3.248,1.348 m -12.381,0.552 1.41,0.123 0.306,-0.429 -0.368,-0.306 -1.41,0.184 z m -31.069,-13.615 v -0.613 a 1.982,1.982 0 0 0 -0.552,0.8 2.614,2.614 0 0 0 -0.123,0.552 c 0,0 0.061,-0.184 0.49,-0.245 a 3.017,3.017 0 0 1 0.981,-0.061 l 0.123,-0.245 a 0.943,0.943 0 0 0 -0.49,-0.123 0.6,0.6 0 0 0 -0.429,-0.061 m 29.174,0.429 c 0.429,0.123 0.49,0.245 0.49,0.245 a 2.614,2.614 0 0 0 -0.123,-0.552 1.982,1.982 0 0 0 -0.552,-0.8 v 0.613 a 1.038,1.038 0 0 0 -0.49,0 0.943,0.943 0 0 0 -0.49,0.123 l 0.123,0.245 c 0.061,0.061 0.613,0 1.042,0.123 m -12.442,-12.811 c 0.184,0.306 0.368,0.613 0.49,0.858 0.123,-0.123 0.245,-0.184 0.306,-0.306 l 0.245,-0.245 c -0.123,-0.245 -0.306,-0.552 -0.49,-0.858 a 4.616,4.616 0 0 1 -0.552,0.552 m 0.674,-1.226 a 3.517,3.517 0 0 0 0.49,-0.552 1.076,1.076 0 0 0 -0.245,-0.306 1.076,1.076 0 0 1 -0.245,-0.306 1.337,1.337 0 0 0 -0.245,0.306 1.076,1.076 0 0 1 -0.306,0.245 3.966,3.966 0 0 1 0.49,0.552 l 0.061,0.061 m -6.007,-0.061 a 3.965,3.965 0 0 1 0.49,-0.552 c -0.123,-0.123 -0.184,-0.123 -0.306,-0.245 a 1.076,1.076 0 0 1 -0.245,-0.306 1.076,1.076 0 0 0 -0.245,0.306 1.076,1.076 0 0 0 -0.245,0.306 c 0.184,0.184 0.306,0.368 0.49,0.552 l 0.061,-0.061 m -5.7,5.087 c -0.061,-0.123 -0.184,-0.245 -0.306,-0.429 l -0.429,0.49 c 0.123,0.123 0.184,0.306 0.306,0.429 0.123,-0.123 0.306,-0.368 0.429,-0.49 m 6.313,-3.8 c -0.123,-0.123 -0.368,-0.306 -0.613,-0.552 a 4.265,4.265 0 0 0 -0.49,0.858 l 0.245,0.245 c 0.123,0.123 0.245,0.184 0.306,0.306 0.184,-0.245 0.306,-0.552 0.552,-0.858 m 12.137,3.981 -0.429,-0.49 c -0.123,0.184 -0.245,0.306 -0.306,0.429 0.123,0.123 0.306,0.368 0.429,0.49 a 2.6,2.6 0 0 1 0.306,-0.429 m -32.79,3.5 a 1.692,1.692 0 0 1 1.226,0 2.463,2.463 0 0 0 1.1,-0.061 1.746,1.746 0 0 0 -0.735,0.858 1.111,1.111 0 0 0 0.8,1.471 c 0.735,0.123 0.981,0.061 1.348,0.123 h 0.735 a 4.292,4.292 0 0 0 -0.552,-0.552 c -0.245,-0.184 -0.613,-0.368 -0.49,-0.735 0.123,-0.306 0.735,-0.735 1.226,-1.226 a 1.325,1.325 0 0 0 0.123,-1.777 c -0.429,-0.552 -0.735,-0.981 -1.165,-1.594 a 1.1,1.1 0 0 1 0,-1.287 c 0,0 0.8,-0.061 1.41,-0.184 a 3.179,3.179 0 0 0 0.981,-0.306 c 0,0 -0.061,0.674 -0.123,1.287 a 3.205,3.205 0 0 0 0.184,2.452 5.194,5.194 0 0 0 2.452,1.348 7.207,7.207 0 0 0 1.654,0.183 h 0.123 a 25.477,25.477 0 0 0 2.7,0.061 28.7,28.7 0 0 0 3.8,-0.245 c 0.919,-0.123 1.594,-0.306 1.961,-0.368 a 6.342,6.342 0 0 0 2.881,-1.839 3.859,3.859 0 0 0 1.41,0.306 4.231,4.231 0 0 0 1.348,-0.306 7.31,7.31 0 0 0 2.203,1.591 13.544,13.544 0 0 0 2.819,0.674 h 0.123 a 27.65,27.65 0 0 0 3.739,0.245 25.475,25.475 0 0 0 2.7,-0.061 h 0.123 a 15.181,15.181 0 0 0 1.655,-0.184 4.931,4.931 0 0 0 2.452,-1.348 3.209,3.209 0 0 0 0.184,-2.452 7.6,7.6 0 0 1 -0.123,-1.287 3.179,3.179 0 0 0 0.981,0.306 c 0.674,0.123 1.41,0.184 1.41,0.184 a 1.173,1.173 0 0 1 0.061,1.287 c -0.429,0.552 -0.735,0.981 -1.165,1.594 a 1.325,1.325 0 0 0 0.123,1.777 c 0.49,0.429 1.165,0.919 1.226,1.226 0.123,0.368 -0.245,0.552 -0.49,0.735 a 4.292,4.292 0 0 0 -0.552,0.552 5.691,5.691 0 0 0 0.8,-0.061 c 0.306,-0.061 0.613,0 1.348,-0.123 a 1.111,1.111 0 0 0 0.8,-1.471 1.746,1.746 0 0 0 -0.735,-0.858 2.463,2.463 0 0 0 1.1,0.061 1.692,1.692 0 0 1 1.226,0 c 0.49,0.184 0.49,0.429 0.49,0.429 a 2.442,2.442 0 0 0 0.184,-1.1 c -0.123,-0.552 -0.8,-0.858 -1.532,-0.919 -0.732,-0.061 -0.306,-0.552 0,-0.858 0.306,-0.306 1.1,-0.858 0.919,-1.839 -0.184,-0.919 -1.042,-1.226 -2.206,-1.532 -1.1,-0.306 -1.226,-1.287 -1.839,-1.716 a 1.76,1.76 0 0 0 -2.268,0.061 4.459,4.459 0 0 1 -1.287,0.368 1.927,1.927 0 0 0 -1.1,1.042 c -0.613,1.042 0.245,2.145 0.674,3.248 0.429,1.103 -0.123,1.961 -1.41,2.268 a 4.632,4.632 0 0 1 -1.042,0.123 c 0,-0.123 0.061,-0.245 0.061,-0.368 a 10.629,10.629 0 0 1 0.429,-1.165 14.274,14.274 0 0 0 0.552,-1.41 1.379,1.379 0 0 0 -0.613,-1.226 5.7,5.7 0 0 0 -1.1,-0.368 c -0.368,-0.123 -0.613,-0.245 -0.674,-0.368 a 0.871,0.871 0 0 0 0.123,-0.368 1.136,1.136 0 0 0 -0.123,-0.429 h 0.123 v -0.062 l -0.674,-0.613 0.735,0.184 v -0.859 l -0.8,0.184 0.184,-0.858 h -0.858 l 0.184,0.919 -0.8,-0.245 v 0.8 l 0.735,-0.184 -0.429,0.8 v 0.055 h 0.123 v 0.061 a 0.871,0.871 0 0 0 -0.123,0.368 0.871,0.871 0 0 0 0.123,0.368 1.956,1.956 0 0 1 -0.674,0.368 c -0.49,0.184 -0.858,0.245 -1.1,0.368 a 1.261,1.261 0 0 0 -0.628,1.226 3.243,3.243 0 0 0 0.552,1.41 3.953,3.953 0 0 1 0.429,1.165 0.463,0.463 0 0 0 0.061,0.245 h -0.429 a 6.439,6.439 0 0 1 -1.839,-0.429 v 0 a 7.122,7.122 0 0 1 -2.942,-2.329 1.863,1.863 0 0 1 -0.368,-1.41 c 0.061,-0.306 0.184,-0.735 0.184,-0.735 a 5.941,5.941 0 0 1 0.613,-1.287 4.1,4.1 0 0 0 0.739,-2.147 2.042,2.042 0 0 0 -0.919,-1.961 7.274,7.274 0 0 0 -1.655,-0.552 3.6,3.6 0 0 1 -1.226,-0.613 0.815,0.815 0 0 0 0.184,-0.49 1.035,1.035 0 0 0 -0.184,-0.616 0.06,0.06 0 0 0 -0.061,-0.061 h 0.184 v -0.12 l -0.735,-0.981 1.042,0.123 -0.061,-1.1 -0.981,0.245 0.367,-1.106 h -1.348 l 0.245,0.981 -1.042,-0.181 v 1.161 l 1.1,-0.184 -0.8,0.981 v 0.123 h 0.123 a 1.235,1.235 0 0 0 -0.184,0.674 1.6,1.6 0 0 0 0.184,0.674 3.076,3.076 0 0 1 -1.165,0.49 7.663,7.663 0 0 0 -1.777,0.552 2.13,2.13 0 0 0 -0.858,2.023 7.851,7.851 0 0 0 1.042,2.574 4.194,4.194 0 0 1 0.49,1.471 2.484,2.484 0 0 1 0,0.674 1.324,1.324 0 0 1 -0.368,0.858 6.583,6.583 0 0 1 -2.7,2.023 5.563,5.563 0 0 1 -1.839,0.552 h -0.429 c 0,-0.123 0.061,-0.184 0.061,-0.245 a 4.674,4.674 0 0 1 0.429,-1.165 3.511,3.511 0 0 0 0.552,-1.471 1.379,1.379 0 0 0 -0.613,-1.226 5.7,5.7 0 0 0 -1.1,-0.368 1.956,1.956 0 0 1 -0.674,-0.368 0.777,0.777 0 0 0 0.061,-0.368 0.871,0.871 0 0 0 -0.123,-0.368 v -0.06 h 0.123 v -0.062 l -0.429,-0.8 0.735,0.245 v -0.79 l -0.8,0.245 0.245,-0.919 h -0.858 l 0.184,0.8 -0.8,-0.184 v 0.858 l 0.735,-0.184 -0.49,0.735 v 0.061 h 0.184 a 0.886,0.886 0 0 0 -0.123,0.429 0.871,0.871 0 0 0 0.123,0.368 1.956,1.956 0 0 1 -0.674,0.368 5.7,5.7 0 0 0 -1.1,0.368 1.332,1.332 0 0 0 -0.613,1.226 2.638,2.638 0 0 0 0.552,1.41 3.953,3.953 0 0 1 0.429,1.165 c 0,0.123 0.061,0.245 0.061,0.368 a 4.977,4.977 0 0 1 -1.042,-0.123 c -1.348,-0.306 -1.839,-1.165 -1.41,-2.268 0.429,-1.103 1.226,-2.206 0.674,-3.248 -0.429,-0.735 -0.735,-0.981 -1.1,-1.042 -0.368,-0.123 -0.919,-0.123 -1.226,-0.368 a 1.76,1.76 0 0 0 -2.26,-0.065 c -0.552,0.429 -0.674,1.41 -1.839,1.716 -1.1,0.306 -2.023,0.552 -2.206,1.532 -0.183,0.98 0.613,1.532 0.919,1.839 0.306,0.307 0.735,0.8 0,0.858 -0.735,0.058 -1.471,0.368 -1.532,0.919 a 1.778,1.778 0 0 0 0.184,1.1 c 0,0 -0.123,-0.245 0.368,-0.368 m 39.348,-6.557 a 3.54,3.54 0 0 0 1.042,-0.368 c 0.49,-0.245 0.8,-0.552 1.287,-0.368 a 2.827,2.827 0 0 1 1.042,1.042 3.377,3.377 0 0 0 1.045,0.92 9.353,9.353 0 0 1 1.471,0.429 c 0.613,0.306 0.8,0.981 0.245,1.777 -0.555,0.796 -1.1,1.042 -0.981,1.41 a 1.151,1.151 0 0 0 0.981,0.674 c 1.1,0.123 1.1,0.8 1.1,0.8 a 1.309,1.309 0 0 0 -1.287,-0.245 2.8,2.8 0 0 1 -1.226,0.123 1.715,1.715 0 0 1 -0.613,-0.306 c 0,0 -0.245,0.368 -0.123,0.613 0.184,0.245 0.368,0.368 0.552,0.613 0.245,0.306 0.552,0.735 -0.184,1.165 a 1.65,1.65 0 0 1 -0.919,0.184 0.7,0.7 0 0 0 0.49,-0.8 c -0.123,-0.429 -0.735,-0.858 -1.165,-1.165 a 1,1 0 0 1 -0.241,-1.537 c 0.306,-0.552 0.919,-1.165 1.348,-1.9 0.368,-0.674 0.061,-0.919 0.061,-0.919 0,0 1.471,-0.306 1.287,0.858 -0.061,0.429 0,0.858 0.245,0.552 0.245,-0.306 0.552,-1.042 0.061,-1.41 a 3.3,3.3 0 0 0 -1.594,-0.552 12.65,12.65 0 0 1 -2.7,-0.49 8.084,8.084 0 0 0 -1.165,-0.552 1.294,1.294 0 0 0 -1.348,0.184 2.921,2.921 0 0 1 1.287,-0.735 m -0.919,2.39 a 0.9,0.9 0 0 1 0.737,-1.226 0.982,0.982 0 0 1 0.613,0.123 v 0.49 c 0,0.123 0.123,0.8 0.245,1.41 a 2.1,2.1 0 0 1 -0.8,2.268 2.451,2.451 0 0 1 -0.8,0.429 2.276,2.276 0 0 0 0.368,-0.552 1.742,1.742 0 0 0 0.184,-1.471 c -0.184,-0.49 -0.306,-0.8 -0.552,-1.471 m -2.819,3.616 v 0.184 a 11.443,11.443 0 0 0 -1.655,-0.184 6.317,6.317 0 0 0 -1.655,0.184 v -0.306 a 7.375,7.375 0 0 1 1.655,-0.306 5.359,5.359 0 0 1 1.716,0.306 0.214,0.214 0 0 0 -0.061,0.123 m -3,-1.226 a 0.957,0.957 0 0 1 0.613,0 1.305,1.305 0 0 1 0.429,0.552 1.173,1.173 0 0 1 -0.613,-0.061 2.318,2.318 0 0 1 -0.429,-0.49 m 1.348,0.368 a 1.463,1.463 0 0 1 -0.184,-0.674 0.938,0.938 0 0 1 0.245,-0.613 1.091,1.091 0 0 1 0.184,0.674 2.255,2.255 0 0 1 -0.245,0.613 m 0.735,-0.306 a 0.764,0.764 0 0 1 0.552,0 0.913,0.913 0 0 1 -0.368,0.429 1.978,1.978 0 0 1 -0.735,0.123 2.212,2.212 0 0 1 0.552,-0.552 m 0.061,-2.881 0.061,0.061 a 4.128,4.128 0 0 1 -0.061,0.613 l 0.061,0.061 0.429,-0.429 -0.245,-0.245 0.306,0.061 0.306,0.061 c 0,0 0.123,0.061 0.429,0.552 a 1.058,1.058 0 0 0 0.184,-0.245 0.458,0.458 0 0 1 0.184,0.184 0.474,0.474 0 0 1 0.061,0.184 c -0.061,0.061 -0.123,0.184 -0.184,0.245 l 0.245,0.49 -0.123,0.245 a 0.358,0.358 0 0 1 -0.061,0.245 2.557,2.557 0 0 0 -0.306,-0.613 c -0.123,0.123 -0.245,0.368 -0.368,0.49 a 1.629,1.629 0 0 1 0.306,0.735 c 0,0 0,0.061 -0.123,0.184 a 1.734,1.734 0 0 0 -0.184,0.368 3.2,3.2 0 0 0 -0.368,-1.042 c -0.245,0.184 -0.429,0.306 -0.429,0.306 l -0.368,-0.306 a 1.66,1.66 0 0 0 0.49,-0.429 c -0.184,-0.306 -0.368,-0.49 -0.429,-0.613 -0.123,0.613 -0.184,0.981 -0.184,0.981 l -0.368,-0.184 c 0,0 0.061,-0.368 0.123,-1.042 0.061,-0.613 0.061,-1.165 0.061,-1.165 z m -0.8,-1.348 a 0.368,0.368 0 1 1 -0.368,0.368 0.4,0.4 0 0 1 0.368,-0.368 m -2.138,2.759 a 4.976,4.976 0 0 1 -0.306,0.613 0.759,0.759 0 0 1 -0.123,-0.184 0.671,0.671 0 0 0 -0.123,-0.245 2.182,2.182 0 0 0 0.245,-0.49 c -0.061,-0.061 -0.123,-0.245 -0.184,-0.245 a 0.474,0.474 0 0 1 0.061,-0.184 0.458,0.458 0 0 1 0.184,-0.184 1.058,1.058 0 0 0 0.184,0.245 c 0.306,-0.429 0.429,-0.49 0.429,-0.552 l 0.306,-0.061 0.306,-0.061 -0.245,0.245 0.429,0.429 0.061,-0.061 a 4.579,4.579 0 0 1 -0.061,-0.674 h 0.061 l 0.429,-0.184 a 6.672,6.672 0 0 0 0.123,1.165 c 0.061,0.674 0.123,0.981 0.123,0.981 l -0.306,0.184 c 0,0 -0.061,-0.368 -0.184,-0.919 -0.061,0.123 -0.245,0.306 -0.429,0.552 a 3.7,3.7 0 0 0 0.49,0.429 l -0.368,0.306 a 2.425,2.425 0 0 0 -0.429,-0.306 2.792,2.792 0 0 0 -0.368,1.042 1.734,1.734 0 0 0 -0.184,-0.368 c 0,-0.184 -0.061,-0.184 -0.061,-0.184 a 4.136,4.136 0 0 1 0.306,-0.735 2.878,2.878 0 0 0 -0.368,-0.552 m -8.826,0.429 a 2.891,2.891 0 0 1 -1.042,-0.184 l 0.429,-0.552 a 1.045,1.045 0 0 0 0.674,0.368 0.845,0.845 0 0 0 0.613,-0.368 l 0.429,0.552 c -0.061,-0.061 -0.49,0.123 -1.1,0.184 m 0.123,-1.594 a 20.423,20.423 0 0 0 -2.758,0.245 v -0.306 a 0.634,0.634 0 0 0 -0.061,-0.245 7.573,7.573 0 0 1 2.819,-0.49 11.3,11.3 0 0 1 2.758,0.49 v 0.552 a 22.078,22.078 0 0 0 -2.758,-0.245 m -0.061,-4.781 a 0.368,0.368 0 1 1 0,-0.735 0.368,0.368 0 0 1 0,0.735 m 0.245,0.613 a 0.245,0.245 0 1 1 -0.245,-0.245 0.264,0.264 0 0 1 0.245,0.245 m -0.245,0.613 a 1.984,1.984 0 0 1 0.368,1.042 2.331,2.331 0 0 1 -0.368,1.1 2.831,2.831 0 0 1 -0.368,-1.042 1.987,1.987 0 0 1 0.368,-1.1 m 0,-2.329 a 0.552,0.552 0 1 1 0.552,-0.552 0.549,0.549 0 0 1 -0.552,0.552 m -2.39,3.861 a 3.073,3.073 0 0 1 1.165,0.123 1.921,1.921 0 0 1 0.735,0.8 3.3,3.3 0 0 1 -1.226,-0.123 2.991,2.991 0 0 1 -0.674,-0.8 m 2.819,0.919 a 3,3 0 0 1 0.8,-0.858 3.164,3.164 0 0 1 1.037,-0.186 c 0,0 -0.368,0.674 -0.735,0.8 a 3.6,3.6 0 0 1 -1.1,0.245 m 3.126,3.248 a 14.72,14.72 0 0 0 2.39,1.532 10.207,10.207 0 0 1 -2.881,-1.165 5.871,5.871 0 0 1 -1.658,-1.66 l 1.1,0.061 c -0.061,-0.061 0.184,0.49 1.042,1.226 m -1.9,-6.926 0.184,-0.184 a 0.882,0.882 0 0 1 -0.117,-0.177 l 0.061,-0.613 0.368,0.49 0.061,-0.061 c 0.184,-0.184 0.306,-0.368 0.429,-0.49 a 4.54,4.54 0 0 0 -0.8,-0.735 l 0.429,0.061 0.49,0.123 c 0,0 0.061,0 0.245,0.184 a 0.19,0.19 0 0 0 0.061,-0.123 l 0.368,0.184 c 0,0 0,0.061 -0.123,0.245 a 2.081,2.081 0 0 0 0.368,0.368 0.846,0.846 0 0 1 0.184,0.245 2.8,2.8 0 0 0 0.245,-0.368 l 0.184,0.49 a 1.814,1.814 0 0 0 -0.184,0.245 c 0.184,0.429 0.306,0.674 0.306,0.674 l -0.184,0.552 a 4.478,4.478 0 0 0 -0.429,-0.858 4.457,4.457 0 0 0 -0.49,0.552 9.279,9.279 0 0 1 0.552,0.858 3.752,3.752 0 0 1 0.306,-0.368 l -0.306,0.552 v 0 l -0.368,0.49 -0.184,0.184 -0.306,0.306 a 2.576,2.576 0 0 0 0.123,0.306 l -0.184,0.674 a 15.743,15.743 0 0 0 -0.8,-1.655 c -0.429,-0.613 -0.8,-1.042 -0.8,-1.042 l 0.123,-0.49 a 3.485,3.485 0 0 1 0.613,0.674 l 0.552,-0.552 v 0 c -0.245,-0.245 -0.429,-0.49 -0.552,-0.613 a 5.762,5.762 0 0 1 -0.552,0.49 z m -0.671,-2.261 0.429,0.306 h 0.123 a 18.262,18.262 0 0 1 -0.245,1.839 15.447,15.447 0 0 1 -0.369,1.713 l -0.368,-0.184 0.184,-1.655 c 0.123,-0.981 0.245,-2.023 0.245,-2.023 m -1.041,-1.838 a 0.708,0.708 0 0 1 0.735,0.735 0.7355,0.7355 0 1 1 -1.471,0 0.745,0.745 0 0 1 0.735,-0.735 m -1.348,2.142 0.429,-0.245 c 0,0 0.123,0.981 0.184,1.961 l 0.184,1.655 -0.368,0.184 c 0,0 -0.184,-0.674 -0.368,-1.716 a 18.264,18.264 0 0 1 -0.245,-1.839 z m -1.961,4.539 -0.184,-0.184 -0.306,-0.555 v 0 l -0.306,-0.552 a 3.753,3.753 0 0 1 0.306,0.368 c 0.123,-0.184 0.306,-0.49 0.552,-0.858 -0.184,-0.245 -0.368,-0.368 -0.49,-0.552 a 4.479,4.479 0 0 0 -0.429,0.858 l -0.184,-0.552 c 0,0 0.123,-0.245 0.306,-0.674 a 1.813,1.813 0 0 0 -0.184,-0.245 l 0.184,-0.49 a 2.8,2.8 0 0 0 0.245,0.368 0.846,0.846 0 0 0 0.184,-0.245 2.333,2.333 0 0 1 0.306,-0.368 c -0.123,-0.184 -0.123,-0.245 -0.123,-0.245 l 0.368,-0.184 0.061,0.123 c 0.184,-0.184 0.245,-0.184 0.245,-0.184 l 0.49,-0.123 0.368,-0.061 a 6.506,6.506 0 0 0 -0.735,0.735 3.5,3.5 0 0 0 0.429,0.49 c 0.061,0.061 0.061,0 0.061,0.061 a 5.382,5.382 0 0 1 0.429,-0.49 l 0.061,0.613 a 0.759,0.759 0 0 0 -0.123,0.184 l 0.184,0.184 0.123,0.613 c 0,0 -0.245,-0.245 -0.552,-0.49 a 4.471,4.471 0 0 1 -0.552,0.613 v 0 a 4.486,4.486 0 0 0 0.552,0.552 3.485,3.485 0 0 1 0.613,-0.674 l 0.123,0.49 a 6.634,6.634 0 0 0 -0.8,1.042 15.744,15.744 0 0 0 -0.8,1.655 l -0.306,-0.674 a 2.578,2.578 0 0 0 0.123,-0.306 l -0.245,-0.245 m -0.245,4.352 a 4.977,4.977 0 0 0 1.042,-1.226 l 1.1,-0.061 a 4.985,4.985 0 0 1 -1.655,1.655 10.207,10.207 0 0 1 -2.881,1.165 14.72,14.72 0 0 0 2.39,-1.532 m -5.332,1.594 v 0.123 a 6.317,6.317 0 0 0 -1.655,-0.184 6.317,6.317 0 0 0 -1.655,0.184 v -0.307 a 5.359,5.359 0 0 1 1.716,-0.306 4.768,4.768 0 0 1 1.655,0.306 0.617,0.617 0 0 0 -0.061,0.184 m -1.839,-0.674 a 1.978,1.978 0 0 1 -0.735,-0.123 1.887,1.887 0 0 1 -0.368,-0.368 0.764,0.764 0 0 1 0.552,0 c 0.245,0.061 0.552,0.49 0.552,0.49 m -0.061,-0.8 a 1.091,1.091 0 0 1 0.184,-0.674 2.255,2.255 0 0 1 0.245,0.613 1.463,1.463 0 0 1 -0.184,0.674 2.255,2.255 0 0 1 -0.245,-0.613 m 0.552,0.735 a 1.3,1.3 0 0 1 0.429,-0.552 0.957,0.957 0 0 1 0.613,0 2.318,2.318 0 0 1 -0.429,0.49 1.192,1.192 0 0 1 -0.613,0.061 m 0.552,-3.371 v 0 c 0.061,0 0.061,0.306 0,0.674 l 0.061,0.061 0.429,-0.429 a 0.734,0.734 0 0 0 -0.245,-0.245 l 0.306,0.061 0.306,0.061 c 0,0 0.123,0.061 0.429,0.552 a 1.058,1.058 0 0 0 0.184,-0.245 0.458,0.458 0 0 1 0.184,0.184 0.474,0.474 0 0 1 0.061,0.184 1.34,1.34 0 0 0 -0.184,0.306 l 0.245,0.49 -0.123,0.245 c -0.061,0.184 -0.123,0.184 -0.123,0.184 a 2.557,2.557 0 0 0 -0.306,-0.613 c -0.123,0.123 -0.245,0.368 -0.368,0.49 a 1.629,1.629 0 0 1 0.306,0.735 c 0,0 0,0.061 -0.123,0.184 a 1.734,1.734 0 0 0 -0.184,0.368 3.2,3.2 0 0 0 -0.368,-1.042 c -0.245,0.184 -0.429,0.306 -0.429,0.306 l -0.306,-0.306 a 1.66,1.66 0 0 0 0.49,-0.429 c -0.184,-0.245 -0.368,-0.49 -0.429,-0.552 l -0.184,0.919 -0.306,-0.184 a 6.268,6.268 0 0 1 0.123,-0.981 c 0.061,-0.613 0.123,-1.165 0.123,-1.165 z m -0.858,-1.348 a 0.368,0.368 0 1 1 -0.368,0.368 0.353,0.353 0 0 1 0.368,-0.368 m -2.084,4.045 a 4.136,4.136 0 0 1 0.306,-0.735 c -0.123,-0.123 -0.245,-0.368 -0.368,-0.49 a 4.977,4.977 0 0 1 -0.306,0.613 0.759,0.759 0 0 1 -0.123,-0.184 0.671,0.671 0 0 0 -0.123,-0.245 2.182,2.182 0 0 0 0.245,-0.49 c -0.061,-0.061 -0.123,-0.245 -0.184,-0.306 a 0.42,0.42 0 0 1 0.306,-0.368 1.058,1.058 0 0 0 0.184,0.245 5.158,5.158 0 0 1 0.429,-0.552 l 0.306,-0.061 0.306,-0.061 -0.245,0.245 0.429,0.429 0.061,-0.061 a 4.128,4.128 0 0 1 -0.061,-0.613 l 0.061,-0.061 0.429,-0.245 c 0,0 0,0.552 0.061,1.165 0.061,0.674 0.123,1.042 0.123,1.042 l -0.368,0.184 c 0,0 -0.061,-0.368 -0.184,-0.981 -0.061,0.123 -0.245,0.306 -0.429,0.613 a 3.7,3.7 0 0 0 0.49,0.429 l -0.368,0.306 a 2.425,2.425 0 0 0 -0.429,-0.306 2.792,2.792 0 0 0 -0.368,1.042 1.734,1.734 0 0 0 -0.184,-0.368 c 0.061,-0.184 0,-0.184 0,-0.184 m -2.382,-2.264 a 11.928,11.928 0 0 0 -0.552,1.532 1.772,1.772 0 0 0 0.184,1.471 2.275,2.275 0 0 0 0.368,0.552 3.356,3.356 0 0 1 -0.8,-0.429 2.024,2.024 0 0 1 -0.8,-2.268 c 0.123,-0.674 0.245,-1.287 0.245,-1.41 v -0.49 a 0.848,0.848 0 0 1 0.613,-0.123 0.834,0.834 0 0 1 0.735,1.165 m -7.11,3.187 a 1.151,1.151 0 0 0 0.981,-0.674 c 0.123,-0.368 -0.429,-0.613 -0.981,-1.41 -0.552,-0.797 -0.368,-1.471 0.245,-1.777 a 9.353,9.353 0 0 1 1.482,-0.433 2.716,2.716 0 0 0 1.042,-0.919 c 0.368,-0.429 0.613,-0.919 1.042,-1.042 0.49,-0.184 0.858,0.123 1.287,0.368 a 2.376,2.376 0 0 0 1.042,0.368 1.73,1.73 0 0 1 1.042,0.674 1.294,1.294 0 0 0 -1.348,-0.184 c -0.429,0.184 -0.245,0.123 -1.165,0.552 a 7.413,7.413 0 0 1 -2.7,0.49 3.3,3.3 0 0 0 -1.594,0.552 c -0.49,0.368 -0.184,1.1 0.061,1.41 0.245,0.31 0.306,-0.123 0.245,-0.552 -0.184,-1.165 1.287,-0.858 1.287,-0.858 0,0 -0.306,0.245 0.061,0.919 0.429,0.735 0.981,1.348 1.348,1.9 0.306,0.552 0.429,1.1 -0.245,1.532 -0.429,0.306 -1.042,0.674 -1.165,1.165 a 0.7,0.7 0 0 0 0.49,0.8 1.65,1.65 0 0 1 -0.919,-0.184 c -0.735,-0.429 -0.368,-0.858 -0.123,-1.165 0.184,-0.245 0.429,-0.368 0.552,-0.613 0.184,-0.245 -0.123,-0.613 -0.123,-0.613 a 1.715,1.715 0 0 1 -0.613,0.306 4.17,4.17 0 0 1 -1.226,-0.123 1.166,1.166 0 0 0 -1.226,0.245 c 0,0 0.123,-0.613 1.226,-0.735 m 10.419,-2.513 -0.429,-0.49 c -0.123,0.184 -0.245,0.306 -0.306,0.429 0.123,0.123 0.306,0.368 0.429,0.49 a 2.6,2.6 0 0 1 0.306,-0.429 m 24.578,0.061 c -0.061,-0.123 -0.184,-0.245 -0.306,-0.429 l -0.429,0.49 c 0.123,0.123 0.184,0.306 0.306,0.429 0.123,-0.123 0.306,-0.368 0.429,-0.49"
     style="fill:#ffffff" />
  <text
     xml:space="preserve"
     id="text319"
     style="white-space:pre;shape-inside:url(#rect321);display:inline;fill:#782121"
     transform="translate(1354.276,-8200.414)" />
  <rect
     style="stroke:none;fill:url(#pattern612)"
     transform="translate(1354.276,-8200.414)"
     width="275.53097"
     height="50.959983"
     x="74.254832"
     y="12.536894"
     id="rect618" />
</svg>
